<svg version="1.2" xmlns="http://www.w3.org/2000/svg" viewBox="0 0 289 467" width="289" height="467"><defs><linearGradient id="P" gradientUnits="userSpaceOnUse"/><linearGradient id="g1" x1="70.1" y1="85.5" x2="251.2" y2="200.4" href="#P"><stop stop-color="#fff"/><stop offset=".02" stop-color="#fff"/><stop offset=".88" stop-color="#dee2ef"/><stop offset="1" stop-color="#b6afaf"/></linearGradient><clipPath clipPathUnits="userSpaceOnUse" id="cp1"><path d="m0 0h655.37v466.65h-655.37z"/></clipPath><linearGradient id="g2" x1="76.6" y1="88.9" x2="247" y2="197.9" href="#P"><stop stop-color="#fff"/><stop offset=".02" stop-color="#fff"/><stop offset=".88" stop-color="#dedc4e"/><stop offset="1" stop-color="#5db868"/></linearGradient><clipPath clipPathUnits="userSpaceOnUse" id="cp2"><path d="m0 0h655.37v466.65h-655.37z"/></clipPath><linearGradient id="g3" x1="35.4" y1="96.3" x2="272.7" y2="96.3" href="#P"><stop stop-color="#fff654"/><stop offset="1" stop-color="#1f8348"/></linearGradient><clipPath clipPathUnits="userSpaceOnUse" id="cp3"><path d="m0 0h655.37v466.65h-655.37z"/></clipPath><linearGradient id="g4" x1="98.7" y1="197.5" x2="188.9" y2="266.4" href="#P"><stop stop-color="#fff654"/><stop offset="1" stop-color="#1f8348"/></linearGradient><linearGradient id="g5" x1="58" y1="190.8" x2="247" y2="201.5" href="#P"><stop stop-color="#fff"/><stop offset=".02" stop-color="#fff"/><stop offset=".27" stop-color="#e0d4a2"/><stop offset=".87" stop-color="#898161"/><stop offset=".96" stop-color="#a89280"/><stop offset="1" stop-color="#a89280"/></linearGradient><clipPath clipPathUnits="userSpaceOnUse" id="cp4"><path d="m0 0h655.37v466.65h-655.37z"/></clipPath></defs><style>.a{fill:url(#g1)}.b{fill:none;stroke:#231f20;stroke-width:1}.c{fill:url(#g2)}.d{fill:url(#g3)}.e{fill:#fbfcf4}.f{fill:url(#g4)}.g{fill:url(#g5)}.h{fill:#231f20}.i{fill:#4d8c51}.j{fill:#388b83}.k{fill:#fff}.l{fill:#aec9ec}</style><path class="a" d="m220.1 0c-46 0.2-114.3 10.6-196 53.6 0 0-25.1 192.7 122.3 293.9 0 0 141.7-74.5 137.6-340.1 0 0-22.1-7.2-60.6-7.4z"/><g clip-path="url(#cp1)"><path class="b" d="m146.4 347.5c0 0 141.6-74.5 137.6-340.1 0 0-106.1-34.8-259.9 46.2 0 0-25.1 192.7 122.3 293.9z"/></g><path class="c" d="m33.2 59.8c0 0-24.3 179.5 114.3 275.5 0 0 124.6-77.9 126.9-320.9 0 0-19.5-6.3-54.2-6.3-42.4 0-107.4 9.5-187 51.7z"/><g clip-path="url(#cp2)"><path class="b" d="m147.5 335.3c0 0 124.6-77.9 126.9-320.9 0 0-96.5-31.4-241.2 45.4 0 0-24.3 179.5 114.3 275.5z"/></g><path fill-rule="evenodd" class="d" d="m228.6 8.7c28 0 44.1 3.6 44.1 3.6 4.8 101.2-19.5 160.3-19.5 160.3 0 0-17.8 1.6-29.9 1.6-12.2 0-55.1 9.8-55.1 9.8l76.9-37.3-114.9 37.3 88.2-84.3-96.3 60.8 85.8-149-106.9 140.1 32.2-130.5c38.8-9.8 71.5-12.4 95.4-12.4zm-94.4 8.5l-1 3.9q-3.4 0.9-7 1.8l0.7-1.7zm-8 5.8l-47.8 118.1-9.7-98.5c20.3-8.4 39.5-14.8 57.5-19.6zm-57.6 18.5l0.1 1.1q-2 0.8-4.1 1.7zm-26 12.7q3.6-1.7 7.2-3.4 3.6-1.7 7.3-3.3 3.7-1.6 7.4-3.2l-8.9 6.1-2.4 85-17.8-51v-26.7q3.5-1.8 7.2-3.5z"/><g clip-path="url(#cp3)"><path class="e" d="m60.5 220.4l61.6-21.1-18.7-8.1 11.4-25.9-21.1 13 4.9-23.5-18.6 19.4-2.5-30.7-8.9 29.9-12.9-29.9 0.8 34-14.6-21.1c0 0 4.1 51 18.6 64z"/></g><path class="f" d="m65.4 219.6l-3.3 2.4c0 0 42.2 81 84.3 104.5 0 0 55-22.7 93.1-115 0 0-31.1-16.2-77.6-16.2-27.8 0-61.1 5.8-96.5 24.3z"/><path class="g" d="m143.3 181.4c-35.2 6.3-87.5 27.2-87.5 27.2l4.8 10.5c0 0 77-34 141.7-19.5l34.8 13.8 15.4-39.7c0 0-70.6 0.8-109.2 7.7z"/><g clip-path="url(#cp4)"><path fill-rule="evenodd" class="h" d="m44 412.8c-0.8 2.3-1.4 4.7-1.6 7-3.9 2.3-9.1 3.6-15.1 3.6-17.2 0-27.3-11.9-27.3-27.5 0-22.6 13.8-31.3 29.4-31.3 5.1 0 11.6 1.7 15 4-0.9 2.7-1.4 5.6-1.7 8.4h-1c-3.7-5.1-7.5-7.4-12.7-7.4-7.9 0-16.9 7.7-16.9 25.1 0 16.9 9 23.6 17.6 23.6 4.7 0 10.2-2.5 13.3-6.2zm21-16.6h-0.7v3.4c0 9.2 0.1 15.5 0.6 22.8-1.6-0.2-3.6-0.5-6.1-0.5-2.4 0-4.4 0.3-6 0.5 0.4-7.3 0.6-13.6 0.6-22.8v-11.2c0-9.2-0.2-15.5-0.6-22.7 1.6 0.1 3.6 0.4 6 0.4 2.7 0 5.9-0.4 10.9-0.4 7.5 0 10.2 0.7 12.8 2.8 2.9 2.3 4.8 6 4.8 10.8 0 8-4.1 13.1-11.5 15.1 4.8 9.3 10.4 18.7 15.8 28-2.2-0.2-4.5-0.5-6.7-0.5-2.2 0-4.5 0.3-6.7 0.5zm-0.4-25.9c-0.2 7.5-0.3 14.8-0.3 22.3 0.6 0.1 1.1 0.2 1.7 0.2 6.5 0 10-4 10-11.8 0-9.7-3.4-10.7-11.4-10.7zm34.3 18c0-9.2-0.2-15.5-0.6-22.7 1.6 0.2 3.6 0.4 6 0.4 2.5 0 4.5-0.2 6.1-0.4-0.4 7.2-0.6 13.5-0.6 22.7v11.2c0 9.2 0.2 15.5 0.6 22.8-1.6-0.2-3.6-0.4-6.1-0.4-2.4 0-4.4 0.2-6 0.4 0.4-7.3 0.6-13.6 0.6-22.8zm64.3 24.4c-0.8 2.3-1.4 4.7-1.6 7-4 2.3-9.1 3.6-15.1 3.6-17.2 0-27.3-11.9-27.3-27.4 0-22.7 13.8-31.4 29.4-31.4 5.1 0 11.6 1.7 15 4-0.9 2.7-1.4 5.6-1.7 8.4h-1c-3.7-5.1-7.5-7.3-12.7-7.3-7.9 0-16.9 7.6-16.9 25 0 17 9 23.6 17.5 23.6 4.8 0 10.3-2.4 13.4-6.1zm19.6-16.3c0 11.8 0 20.6 0.6 25.8-1.6-0.2-3.6-0.4-6-0.4-2.5 0-4.5 0.2-6.1 0.4 0.4-7.2 0.6-13.6 0.6-22.8v-11.1c0-9.2-0.2-15.6-0.6-22.8 1.6 0.2 3.6 0.4 6.1 0.4 2.4 0 4.4-0.2 6-0.4-0.6 4.4-0.6 15.6-0.6 26.2 6.7-8.7 16.3-22 18.9-26.2 1.4 0.2 2.7 0.4 4.1 0.4 1.4 0 2.8-0.2 4.5-0.4-3.4 3.7-15.3 18.3-19.1 23.7 6.3 10.7 16.2 27.2 20.2 33-2.9-0.2-5.1-0.4-7.2-0.4-2.1 0-4.3 0.2-6.4 0.4-4.9-8.6-9.9-17.3-14.8-25.8zm34.2-8.1c0-9.2-0.1-15.6-0.6-22.8 4.4 0.1 8.8 0.4 13.2 0.4 7.2 0 13.4-0.1 15.4-0.4-0.1 1-0.3 2-0.3 3.5 0 1.7 0.2 2.4 0.3 3.7-5.6-0.5-14.5-1-16.7-1-0.3 6-0.3 11.9-0.3 17.9 6.4-0.2 11.1-0.3 16.7-0.7-0.3 1.9-0.3 2.7-0.3 3.7 0 0.9 0.1 1.7 0.3 3.4-5.6-0.5-11.1-0.7-16.7-0.7 0 3.4-0.1 6.9-0.1 10.5 0 3.4 0.1 6.9 0.2 10.2 5.6 0 11.2-0.3 16.9-1-0.1 1.1-0.3 1.9-0.3 3.7 0 1.7 0.2 2.5 0.3 3.5-2.6-0.1-6.1-0.4-12.9-0.4-12.1 0-14.1 0.2-15.7 0.4 0.5-7.2 0.6-13.6 0.6-22.8zm46.4-9.3c0-3.1 0-6.1-0.2-7.3-2.9 0-9.1 0.5-13.6 1.1 0.2-1.2 0.4-2.4 0.4-3.6 0-1.2-0.2-2.4-0.4-3.6 6.8 0.2 10.1 0.4 19.2 0.4 9.2 0 12.5-0.2 18.8-0.4-0.2 1.2-0.3 2.4-0.3 3.6 0 1.2 0.1 2.4 0.3 3.6-4-0.6-10.2-1.1-13.1-1.1-0.2 1.2-0.2 4.2-0.2 7.3v20.5c0 9.2 0.2 15.5 0.6 22.8-1.6-0.2-3.6-0.4-6.1-0.4-2.4 0-4.4 0.2-6 0.4 0.4-7.3 0.6-13.6 0.6-22.8zm-191.3 87.1c-1.2-0.1-2.3-0.2-3.4-0.2-1.1 0-2.2 0.1-3.3 0.2q-0.3-1.1-0.6-2.2-0.3-1.1-0.6-2.2-0.4-1.1-0.7-2.2-0.4-1.1-0.7-2.2c-1.7 0-3.3-0.1-5-0.1-1.3 0-2.6 0.1-4 0.1q-0.3 1.1-0.7 2.2-0.3 1.1-0.7 2.2-0.3 1.1-0.6 2.2-0.3 1.1-0.6 2.2c-0.6-0.1-1.2-0.2-1.8-0.2-0.6 0-1.2 0.1-1.9 0.2 1.9-4.7 7.7-20 11-29.7 0.5 0.1 0.9 0.2 1.4 0.2 0.5 0 1-0.1 1.5-0.2 3.3 9.7 7.8 22.7 10.7 29.7zm-10.2-11.3c-1.1-3.4-2.2-6.8-3.4-10.2q-0.5 1.3-1 2.6-0.5 1.2-0.9 2.5-0.5 1.3-0.9 2.5-0.4 1.3-0.9 2.6zm12.5 0.6c0-4.6 0.1-6.9 0.1-10 0-4.5-0.1-7.4-0.2-8.8 1.1 0.1 2.2 0.2 3.2 0.2 1 0 2.1-0.1 3.2-0.2-0.5 5.5-0.6 10-0.6 15 0 10.4 2.7 12.1 7.7 12.1 6.2 0 6.6-7.4 6.6-15.3 0-4-0.1-7.9-0.3-11.8q0.2 0 0.5 0.1 0.2 0 0.5 0 0.2 0.1 0.5 0.1 0.2 0 0.5 0c0.6 0 1.2-0.1 1.9-0.2-0.3 2.5-0.5 8.6-0.5 16 0 10-3.9 14.1-11.4 14.1-6.6 0-11.7-3.2-11.7-11.3zm41.3-13c-0.8-2.5-2.3-3.7-4.7-3.7-2.3 0-4 1.8-4 3.8 0 6.4 11.7 4.8 11.7 14.5 0 5.7-4 9.7-10.2 9.7-2.7 0-5.1-0.9-6.2-1.9 0.5-1.9 0.9-3.5 1.1-5.4h0.8c0.4 2.5 2.2 4.6 5.3 4.6 3 0 4.5-2 4.5-4.4 0-6.4-11.5-4.7-11.5-14.4 0-5.9 4.1-9.2 8.7-9.2 2.8 0 4.8 0.8 6.3 2.1-0.5 1.4-0.7 2.4-1.2 4.3zm12.4 1.2c0-1.7 0-3.2-0.1-3.8-1.5 0-4.7 0.3-7.1 0.6 0.2-0.7 0.2-1.3 0.2-1.9 0-0.7 0-1.3-0.2-1.9 3.5 0.1 5.3 0.2 10.1 0.2 4.7 0 6.5-0.1 9.7-0.2q0 0.2-0.1 0.5 0 0.2 0 0.4 0 0.3 0 0.5-0.1 0.2-0.1 0.5c0 0.6 0.1 1.2 0.2 1.9-2-0.3-5.3-0.6-6.8-0.6-0.1 0.6-0.1 2.1-0.1 3.8v10.7c0 4.7 0.1 8 0.3 11.8-0.8-0.1-1.9-0.2-3.1-0.2-1.3 0-2.4 0.1-3.2 0.2 0.2-3.8 0.3-7.1 0.3-11.8zm22.9 8.9h-0.3v1.8c0 4.7 0 8 0.3 11.8-0.9-0.1-1.9-0.2-3.2-0.2-1.3 0-2.3 0.1-3.1 0.2 0.2-3.8 0.3-7.1 0.3-11.8v-5.9c0-4.8-0.1-8-0.3-11.8 0.8 0.1 1.8 0.2 3.1 0.2 1.4 0 3.1-0.2 5.7-0.2 3.9 0 5.3 0.4 6.6 1.4 1.6 1.3 2.5 3.2 2.5 5.7 0 4.1-2.1 6.8-5.9 7.9 2.4 4.8 5.4 9.7 8.2 14.5-1.2-0.1-2.3-0.2-3.5-0.2-1.2 0-2.3 0.1-3.5 0.2zm-0.2-13.5c-0.1 3.9-0.1 7.8-0.1 11.7 0.3 0 0.5 0 0.8 0 3.4 0 5.2-2 5.2-6.1 0-5-1.7-5.6-5.9-5.6zm39.4 27.1c-1.2-0.1-2.3-0.2-3.4-0.2-1.1 0-2.2 0.1-3.3 0.2q-0.3-1.1-0.6-2.2-0.3-1.1-0.6-2.2-0.4-1.1-0.7-2.2-0.4-1.1-0.7-2.2c-1.7 0-3.3-0.1-4.9-0.1-1.4 0-2.7 0.1-4.1 0.1q-0.3 1.1-0.7 2.2-0.3 1.1-0.7 2.2-0.3 1.1-0.6 2.2-0.3 1.1-0.6 2.2c-0.6-0.1-1.2-0.2-1.8-0.2-0.6 0-1.2 0.1-1.9 0.2 1.9-4.7 7.7-20 11-29.7 0.5 0.1 0.9 0.2 1.4 0.2 0.5 0 1-0.1 1.5-0.2 3.3 9.7 7.8 22.7 10.7 29.7zm-10.2-11.3c-1.1-3.4-2.2-6.8-3.4-10.2q-0.5 1.3-1 2.6-0.5 1.2-0.9 2.5-0.5 1.3-0.9 2.5-0.4 1.3-0.9 2.6zm14.2-6.4c0-4.8-0.1-8-0.3-11.8 0.9 0.1 1.9 0.2 3.2 0.2 1.2 0 2.3-0.1 3.1-0.2-0.2 3.8-0.3 7-0.3 11.8v5.9c0 3.1 0.1 6.4 0.1 8.6 2.9 0 5.8-0.2 8.8-0.6-0.1 0.6-0.1 1.1-0.1 2 0 0.9 0 1.3 0.1 1.8-1.4 0-3.2-0.2-6.7-0.2-6.3 0-7.3 0.1-8.2 0.2 0.2-3.8 0.3-7.1 0.3-11.8zm19.4 0c0-4.8-0.1-8.1-0.3-11.9 0.9 0.1 1.9 0.2 3.2 0.2 1.2 0 2.3-0.1 3.1-0.2-0.2 3.8-0.3 7.1-0.3 11.9v5.8c0 4.8 0.1 8.1 0.3 11.8-0.8-0.1-1.9-0.2-3.1-0.2-1.3 0-2.3 0.1-3.2 0.2 0.2-3.7 0.3-7 0.3-11.8zm34.4 17.6c-1.2 0-2.3-0.2-3.4-0.2-1.1 0-2.2 0.2-3.3 0.2q-0.3-1.1-0.6-2.2-0.3-1.1-0.6-2.2-0.4-1.1-0.7-2.1-0.4-1.1-0.7-2.2c-1.7-0.1-3.3-0.1-4.9-0.1-1.4 0-2.7 0-4 0.1q-0.4 1-0.8 2.1-0.3 1.1-0.7 2.2-0.3 1.1-0.6 2.2-0.3 1.1-0.6 2.2c-0.6 0-1.2-0.2-1.8-0.2-0.6 0-1.2 0.2-1.9 0.2 1.9-4.7 7.7-19.9 11-29.7 0.5 0.1 0.9 0.2 1.4 0.2 0.5 0 1-0.1 1.5-0.2 3.3 9.8 7.8 22.8 10.7 29.7zm-10.2-11.3c-1.1-3.4-2.2-6.8-3.4-10.1q-0.5 1.2-1 2.5-0.5 1.3-0.9 2.5-0.5 1.3-0.9 2.6-0.4 1.3-0.8 2.5z"/><path class="i" d="m81.6 211.5c0 0 62.3 25.9 80.1 61.5l6.5-12.1c0 0-38.9-42.1-77.7-51.8l-6.5 1.6"/><path class="i" d="m97.8 205c56.7 27.5 66.7 37.8 75.3 55.1l4-12.2c0 0-31.6-33.2-72.9-43.7z"/><path class="i" d="m108.3 201.8c0 0 37.2 4 75.3 43.7l1.6-10.5c3.5 5.8-9.6-26.5-69.6-34z"/><path fill-rule="evenodd" class="j" d="m217.6 105.4l9.9-12.8 11.2 12.8-2.5-15.4 17.8-0.8-15.3-10.5 11.3-14.6-18.6 7.3-2.5-21-6 21-20.7-8.1 13 15.4c0 0-18.6 12.1-16.2 12.1 2.4 0 19.4-2.4 19.4-2.4zm-38.8-44.5l-15.4-13 7.6-14.4-16.5 8.7-4.9-15.3-5.7 18.6-18.6-7.3 11.3 14.6c0 0-12.1 8.9-15.3 8.9-3.3 0 17.8 0.8 17.8 0.8l0.8 20.2 9.7-17 11.3 13.8-3.2-19.4zm-104.5 18.6l-4 21.9-17-5.7 7.3 13.7-13 9 18.6 0.8-4.8 19.4 10.5-14.6 13.8 13-4.1-19.5 20.3 2.5-13.8-10.6 9.7-15.3-17.8 6.4zm98 75.3l5.7-4.8 8.9 7.3-0.8-10.6 6.4-7.2-11.3-0.9-3.2-12.9-4.1 12.1-11.3 1.7 8.9 7.2-4.1 10.6zm-29.9 105.2l-19.5-10.5 12.2 22.7-17.8 7.3 17.8 2.4-3.3 20.2 13.8-18.6 13 17-2.5-17 22.7-1.6-19.4-9.7 8.9-15.4c0 0-15.4 5.4-16.9 7.3-0.1-2.8-2.6-18.6-2.6-18.6zm9 4.4q-0.1-0.1 0.1-0.4c0 0.4 0 0.6-0.1 0.4z"/><path fill-rule="evenodd" class="k" d="m215.3 103.7l10-12.8 11.1 12.8-2.4-15.4 17.8-0.8-15.4-10.5 11.3-14.6-18.6 7.3-2.4-21.1-6 21.1-20.8-8.1 13 15.4c0 0-18.6 12.1-16.2 12.1 2.4 0 19.4-2.4 19.4-2.4zm-38.8-44.5l-15.4-13 7.7-14.4-16.5 8.6-5-15.2-5.6 18.6-18.7-7.3 11.4 14.6c0 0-12.2 8.9-15.4 8.9-3.3 0 17.8 0.8 17.8 0.8l0.8 20.2 9.7-17 11.4 13.8-3.3-19.5zm-104.4 18.7l-4.1 21.8-17-5.6 7.3 13.7-13 8.9 18.7 0.8-4.9 19.5 10.5-14.6 13.8 13-4-19.5 20.2 2.5-13.8-10.6 9.7-15.4-17.8 6.5zm98 75.3l5.7-4.8 8.9 7.3-0.8-10.6 6.4-7.3-11.3-0.8-3.2-12.9-4.1 12.1-11.3 1.6 8.9 7.3-4.1 10.6zm-29.9 105.2l-19.4-10.5 12.1 22.7-17.8 7.2 17.8 2.5-3.2 20.2 13.7-18.6 13 17-2.4-17 22.6-1.6-19.4-9.7 8.9-15.4c0 0-15.4 5.4-16.9 7.3-0.1-2.8-2.5-18.7-2.5-18.7zm8.9 4.5q-0.1-0.2 0.1-0.4c0 0.4 0 0.6-0.1 0.4z"/><path fill-rule="evenodd" class="h" d="m28.9 58.4c0 0 117.5-75.2 248.6-46.9 0.2 1.2 2.6 135.5-38.8 212.1-50.2 93.1-90.7 112.6-90.7 112.6-12.3-5.4-127.6-66.5-119.9-276.1zm118.3 265.5c0 0 72.4-45.6 102-149.9 12.8-45.1 16.5-67.7 21-156.9-136-23.5-235.6 42.9-235.6 42.9-8.9 208.9 112.6 263.9 112.6 263.9z"/><path fill-rule="evenodd" class="l" d="m231.3 79.9l16.6 6.9-17.6-0.3 4.1 13.4-8.9-11-8.6 11.4 8.6-19.3 19.6-16.2zm-3-10.4l-4.6 2.8 2.5-19zm-73.3-18.3l16.9 6.9-18.6-1.7 3.1 16.2-8.9-11.4-9.4 14.5 10-22.7 18-18.7zm-4.4-10l-4.6 2.8 0.7-15.9zm-71.5 67.6l14.8 7.3-17.9-2.8 4.5 17.9-11-12-9.4 14.4 10-22.7 22.8-16.9zm-4-10l-3.6 1.7 0.7-14.8zm75.1 176.2l20.7 4.1-19.8 0.9 2.1 13-9.5-14.8-12.4 17.9 11.1-21.6 19.9-17zm-2.9-12.5l-3.6 1.7 1.9-16.3zm35.6-118.5l-4.8-0.7 5.1 10.4-8.2-6.6-7.3 5.2 8.3-10 11.7-3.5zm-5.2-6.9l-2.4 3.5 0.4-11.4z"/></g></svg>