<svg height="271.964147" viewBox="-153 -46 676.09998 499.90001" width="367.695526" xmlns="http://www.w3.org/2000/svg"><path d="m176.8 41.699999c-8.6 1.1-17 2.2-25.2 3.5l3 95.299991 105.6 55.3c3.1-1.5 6.1-3 9.2-4.5l-88.3-60-14.5 5zm-51 7.9c-8.60001 1.7-16.70001 3.6-24.30001 5.7l-1.1 108.399991 109.60001 56c4.1-1.9 8.3-3.9 12.6-5.9l-95.1-62.5-15.10001 6.8zm23.7-4.1c-7.4 1.2-14.7 2.4-21.6 3.8l-.4 101.999991 108.7 56.1c3.6-1.7 7.2-3.4 10.8-5.2l-92.4-61.7-15.2 5.3zm72.6-8.8c-6.7.7-13.4 1.3-20 2.1l4.7 84.199991-14.6 4.7 7.6-88.599991c-7 .8-13.9 1.5-20.8 2.4l2.2 89.699991 102.6 52.8c2.9-1.5 5.9-3 8.8-4.5l-85.4-56.5 96.7 50.6c2.9-1.5 5.8-3.1 8.6-4.6l-80.6-54.3-14.7 5zm23.2-2.2c-6.9.7-13.8 1.3-20.8 2l7.5 78.099991 90.9 48.6c2.6-1.5 5.2-2.9 7.7-4.4l-76.8-51.8-12.6 4.5zm-267.700006 77.799991c-12.9 8-23.5 15.1-31 20.3l-3.2 129.3s-24.899997 17.8-34.199997 25.7c-9.299997 7.9-26.499997 24-26.499997 24v31.9s20.700002-28.6 35.199997-42.2c14.099997-13.2 32.399997-28.2 32.399997-28.2l-3.3-4.8 115.3 52.1c1.8-1.8 6.3-6.1 12.8-12l-100-65.5-15.6 12.5zm31.5-18.299991c-10.2999994 5.599995-19.9 11.199991-28.5 16.399991l-5.4 132.4 116.899996 50.6c4.2-3.6 8.7-7.3 13.4-11.2l-98.099996-63.6-15.5999997 11.4zm259.500006-61.8c-7 .7-14 1.4-21.2 2l6.4 72.799991 86.6 46.1c2.8-1.6 5.5-3.3 8.3-5l-72.4-48.699996-13.6 4.799996zm-169.40001 23.7c-.6.2-1.2.3-1.7.5-8.499996 2.5-16.899996 5.3-25.199996 8.4l-2.7 114.999991 112.400006 53.2c4.3-2.1 8.8-4.3 13.5-6.5l-95.20001-62.8-16.199996 8.2zm-28.899996 9.7c-9.9 3.8-19.6 7.9-29 12.2l-2.8 120.299991-15.799999 10.1 16.399999-129.399991c-9.699999 4.5-18.999999 9.3-27.9 14l-3.8 125.799991 113.699996 51.4c4.10001-3.1 8.40001-6.2 12.70001-9.2l-95.300006-62.4 111.900006 51.6c4.4-2.7 8.9-5.3 13.3-7.7.3-.1.6-.3.8-.4l-95.000006-62.1-16 9.2zm335.200006-62.7000007c-5.8 2.4-12 4.8000005-18.4 7.0000005l.2 41.6000002 53.8 11.6c3-4.5 5.8-9.1 8.5-13.6l-40.8-11.5-10.5 6.8zm-20.4 7.7000007c-6.3 2.2-12.8 4.3-19.6 6.2l-.4 46.2 62.1 19.1c2.5-3.2 5-6.5 7.4-9.7l-47.3-20.9-10.9 5.7zm59.2-26.5c-5 2.799999-10.4 5.599999-16.2 8.4999993l-.3 31.0000007-10.5 8.2 8.9-38.3000007c-5.9 2.9-12.2 5.70000003-18.9 8.5l1.4 36.0000007 45.8 2.7c2.5-4.6 4.9-9.2 7.2-13.6l-33.3-3.9 37.4-4.7c2-4.3 3.9-8.5000002 5.6-12.6000002l-25.4 1.6-7.8 7.1000002zm-80.6 33.3c-3 .9-6 1.7-9.1 2.5-3.6.9-7.4 1.8-11.5 2.6l-.2 50.8h-.1l69.9 25.599995c2.4-2.6 4.8-5.199995 7.1-7.799995l-54.7-28.1-10.9 5.1zm125.2-63.399999s-3 2.699999-8.9 7.099999l-2.4 11.3-4.8 6 2.6-13.9c-3.1 2.2-6.6 4.7-10.7 7.3l-2.5 19.0999993-5.3 5.9 5-23.1999993c-4.7 3-10 6.2-15.9 9.5l-.1 24.4999998 29.1-10.6000005c1.5-3.9 2.9-7.7000003 4.2-11.2000003l-15 2.9 17.5-10.099999c5.1-15 7.2-24.599999 7.2-24.599999zm-196.3 75.699999c-7 .8-14.2 1.5-21.6 2.3l5.3 67.399995 83.4 41.899996c2.8-1.8 5.6-3.6 8.3-5.5l-68.3-45.199991-13.4 5.099995zm28 52.8-.1-.1zm-2.1-56c-7.6 1.1-15.5 2-23.9 3l5 61.2 77.7 38.699991c1.9-1.4 3.8-2.7 5.7-4.1 1-.7 2-1.5 3-2.3l-65.4-40.499991-11.6 4.5zm22.4-3.6c-6.2 1.2-12.9 2.3-20.1 3.3l.1 56.2-.3.1 75.6 32.299991c2.6-2.2 5.1-4.5 7.5-6.8l-60.9-34.699991-11.3 4.9zm22.4 381.499991c0-16.7-5.8-27.5-33.3-27.5-26.7 0-34 8.7-34 38.2.1 27.3 5.6 38.2 34.1 38.2 28 0 33.2-12.9 33.2-28.9h-27.2v7.9c0 3.6-1.8 6.1-5.9 6.1s-5.9-2.4-5.9-6.1v-34.5c0-3.6 1.8-6.1 5.9-6.1s5.9 2.4 5.9 6.1v6.6zm-282.000006 46.7v-62.6c-.2-2-1.1-3.2-2.3-3.9-.6-.4-1.3-.6-2-.7-.4-.1-.9-.2-1.3-.2v-4.5h5.6l38.299996-.2c20.70001 0 26.90001 6.1 26.90001 17.5 0 11.8-7.1 16-17.6 17.9 11.3 1.5 19.1 5.9 19.1 18.2 0 9.1-5.2 18.6-23.4 18.6zm26.899996-29.4v14.5h5.5c4.1 0 6.2-3.8 6.2-8.3 0-4.4-2.4-6.3-5.7-6.3h-6zm0-27.7v13.3h5.5c3.5 0 5.6-3 5.6-6.7 0-3.6-2.2-6.7-5.6-6.7zm50.90001 57.1v-57.5l-.1-4.5c0-2.3-1-3.7-2.3-4.4-.6-.4-1.3-.6-2-.7-.5-.1-.9-.2-1.3-.2v-4.5h5.7l27.7-.2v54.9h23.8v17.2zm-227.600006 0v-57.5l-.1-4.5c0-2.3-1-3.7-2.3-4.4-.6-.4-1.3-.6-2-.7-.5-.1-.9-.2-1.3-.2v-4.5h5.7l27.7-.2v54.9h23.7v17.2zm59.5000002 0v-57.5l-.1-4.5c0-2.3-1.0000002-3.7-2.3000002-4.4-.6-.4-1.3-.6-2-.7-.5-.1-.9-.2-1.3-.2v-4.5h5.7000002l27.7000008-.2v54.9h23.799999v17.2zm530.4000058-52.5c0-12-5.9-22.4-32.6-22.4-21.2 0-32.5 7.6-32.5 25.2 0 26.8 38.9 16.2 38.9 32.4 0 3.6-2.7 6.4-6.5 6.4-2.4 0-3.7-1-4.6-2.7-.8-1.7-1-4.1-1.1-7h-27.6c-1.2 21 17.3 23.4 35.3 23.4 17.8 0 32.4-6.1 32.4-25.4 0-26.6-39.1-18.5-39.1-32.1 0-2.8 2-5.4 5-5.4 2.9 0 4.6.7 5.4 2s1 3.2 1 5.5h26zm-266.3-4.6-5.6 31.9h11zm-38.4 57.1 16.7-62.4c.4-2.2-.1-3.7-1.3-4.4-.6-.4-.9-.5-1.6-.6-.5-.1-.9-.2-1.3-.2v-4.5h6.8 37.9l18.8 72h-28.3l-2-11.3h-15.2l-2 11.3h-28.5zm-331.3-57.1-5.6 31.9h11zm-38.4 57.1 16.7-62.4c.4-2.2-.1-3.7-1.3-4.4-.6-.4-.9-.5-1.6-.6-.5-.1-.9-.2-1.3-.2v-4.5h6.8 37.899997l18.799997 72h-28.299994l-2-11.3h-15.2l-2 11.3h-28.5zm520.9-72.4 33.4-.1v20.1l19.7-20h32.3l-28 27.4 26.7 44.5h-29.3l-15.5-26.7-6 5.9v20.8h-27.7v-57.6l-.1-4.4c0-2.3-1-3.7-2.3-4.4-.6-.4-1.3-.6-2-.7-.5-.1-.9-.2-1.3-.2z"/></svg>