<?xml version="1.0" encoding="utf-8"?>
<!-- Generator: Adobe Illustrator 14.0.0, SVG Export Plug-In . SVG Version: 6.00 Build 43363)  -->
<!DOCTYPE svg PUBLIC "-//W3C//DTD SVG 1.1//EN" "http://www.w3.org/Graphics/SVG/1.1/DTD/svg11.dtd">
<svg version="1.1" id="Layer_1" xmlns="http://www.w3.org/2000/svg" xmlns:xlink="http://www.w3.org/1999/xlink" x="0px" y="0px"
	 width="250px" height="143px" viewBox="0 0 250 143" enable-background="new 0 0 250 143" xml:space="preserve">
<g>
	<ellipse fill="#00529B" cx="125" cy="71.5" rx="120" ry="66.555"/>
	<path fill="#FFFFFF" d="M214.378,106.737h0.494c0.68,0,1.016,0.208,1.016,0.692c0,0.461-0.312,0.656-0.958,0.656h-0.552V106.737
		 M213.246,106.023v4.643h1.132v-1.9h0.552l0.888,1.9h1.257l-1.037-2.071c0.635-0.164,1.013-0.625,1.013-1.235
		c0-0.888-0.656-1.336-1.982-1.336H213.246z M214.976,104.236c-1.51,0-2.813,0.75-3.56,2.016c-0.415,0.705-0.61,1.431-0.61,2.179
		c0,1.086,0.415,2.123,1.199,2.916c0.805,0.817,1.854,1.266,2.971,1.266c1.083,0,2.145-0.424,2.962-1.217
		c0.793-0.775,1.232-1.813,1.232-2.965c0-1.117-0.415-2.154-1.187-2.938C217.175,104.676,216.129,104.236,214.976,104.236
		 M214.988,104.929c0.97,0,1.82,0.356,2.501,1.049c0.655,0.668,0.991,1.511,0.991,2.511c0,0.899-0.369,1.775-1.028,2.41
		c-0.689,0.658-1.564,1.024-2.477,1.024c-0.921,0-1.809-0.381-2.477-1.062c-0.656-0.655-1.004-1.519-1.004-2.44
		c0-0.921,0.381-1.82,1.062-2.501C213.213,105.264,214.045,104.929,214.988,104.929"/>
	<path fill="#E21E31" d="M134.926,108.409H80.401l-1.972-9.858H57.371l-3.052,7.689c16.479,13.019,42.011,21.38,70.678,21.38
		c27.035,0,51.27-7.431,67.766-19.196h-26.812l-3.472-45.434h-6.918l1.232,23.167h-21.868V108.409"/>
	<path fill="#E21E31" d="M55.529,35.881h34.984l12.067,37.101l1.052-37.077h90.864c-10.399-7.867-24.171-13.94-39.933-17.358v5.983
		h-9.233v-7.645c-2.428-0.351-4.898-0.637-7.399-0.863v13.571h-9.23V15.502c-1.232-0.03-2.459-0.055-3.7-0.055
		c-1.242,0-2.474,0.024-3.7,0.055v14.093h-9.236V16.023c-2.501,0.226-4.966,0.513-7.394,0.863v7.645h-9.233v-5.983
		C79.684,21.966,65.924,28.021,55.529,35.881"/>
	<path fill="#E21E31" d="M193.05,47.149l4.387,34.252h16.154c0.918-3.203,1.397-6.497,1.397-9.871
		c0-10.499-4.634-20.321-12.689-28.728L193.05,47.149"/>
	<path fill="#E21E31" d="M54.273,46.198l-6.84-3.108c-7.89,8.339-12.422,18.064-12.422,28.441c0,1.727,0.128,3.435,0.375,5.125
		L54.273,46.198"/>
	<path fill="#FFFFFF" d="M150.919,64.612l0.72,13.409h-22.441v22.536H83.885l-2.221-9.725H54.531l-4.936,9.725H25.433l33.226-53.591
		h7.493l-15.983-7.354h36.767l18.467,55.095h0.75l1.794-55.095h52.856l1.146,14.907h-32.751v10.093H150.919z M225.444,100.558
		H170.13L165.347,39.6h33.475l-17.161,7.373h6.985l4.887,38.217h28.27L225.444,100.558z"/>
	<polygon fill="#00529B" points="73.601,55.479 72.39,55.479 60.205,79.718 79.117,79.718 	"/>
	<path fill="#FFFFFF" d="M124.997,9.51c-54.542,0-98.761,27.753-98.761,61.99c0,5.216,1.031,10.282,2.966,15.124l4.733-7.633
		c-0.475-2.437-0.722-4.929-0.722-7.461c0-26.879,27.628-49.574,65.52-56.882v6.604h2.636V14.17
		c4.539-0.781,9.212-1.347,13.995-1.666v13.823H118V12.347c2.312-0.113,4.643-0.169,6.998-0.169c2.357,0,4.691,0.056,6.997,0.169
		v13.981h2.642V12.505c4.783,0.319,9.456,0.885,13.995,1.666v7.082h2.636v-6.604c37.891,7.309,65.518,30.003,65.518,56.882
		c0,3.365-0.442,6.662-1.271,9.871h6.991c0.823-3.221,1.257-6.53,1.257-9.901C223.761,37.263,179.546,9.51,124.997,9.51"/>
	<path fill="#FFFFFF" d="M124.997,130.884c-29.076,0-54.995-8.742-71.814-22.39h-7.431c18.003,15.167,46.795,24.995,79.245,24.995
		c32.504,0,61.336-9.859,79.333-25.065h-7.428C180.089,122.111,154.128,130.884,124.997,130.884"/>
</g>
</svg>
