<?xml version="1.0" encoding="UTF-8" standalone="no"?>
<!-- Created with Inkscape (http://www.inkscape.org/) -->

<svg
   xmlns:dc="http://purl.org/dc/elements/1.1/"
   xmlns:cc="http://creativecommons.org/ns#"
   xmlns:rdf="http://www.w3.org/1999/02/22-rdf-syntax-ns#"
   xmlns:svg="http://www.w3.org/2000/svg"
   xmlns="http://www.w3.org/2000/svg"
   xmlns:sodipodi="http://sodipodi.sourceforge.net/DTD/sodipodi-0.dtd"
   xmlns:inkscape="http://www.inkscape.org/namespaces/inkscape"
   width="280"
   height="280"
   id="svg4503"
   version="1.1"
   inkscape:version="0.48.1 "
   sodipodi:docname="australia olympic committee logo.svg">
  <defs
     id="defs4505">
    <pattern
       y="0"
       x="0"
       height="6"
       width="6"
       patternUnits="userSpaceOnUse"
       id="EMFhbasepattern" />
    <pattern
       id="EMFhbasepattern-1"
       patternUnits="userSpaceOnUse"
       width="6"
       height="6"
       x="0"
       y="0" />
  </defs>
  <sodipodi:namedview
     id="base"
     pagecolor="#ffffff"
     bordercolor="#666666"
     borderopacity="1.0"
     inkscape:pageopacity="0.0"
     inkscape:pageshadow="2"
     inkscape:zoom="0.92893175"
     inkscape:cx="177.73791"
     inkscape:cy="161.85171"
     inkscape:document-units="px"
     inkscape:current-layer="layer2"
     showgrid="false"
     inkscape:window-width="1280"
     inkscape:window-height="657"
     inkscape:window-x="-8"
     inkscape:window-y="-8"
     inkscape:window-maximized="1"
     fit-margin-top="0"
     fit-margin-left="0"
     fit-margin-right="0"
     fit-margin-bottom="0"
     showguides="true"
     inkscape:guide-bbox="true">
    <inkscape:grid
       type="xygrid"
       id="grid4813"
       empspacing="5"
       visible="true"
       enabled="true"
       snapvisiblegridlinesonly="true"
       originx="-99.094539"
       originy="8.3756075" />
  </sodipodi:namedview>
  <metadata
     id="metadata4508">
    <rdf:RDF>
      <cc:Work
         rdf:about="">
        <dc:format>image/svg+xml</dc:format>
        <dc:type
           rdf:resource="http://purl.org/dc/dcmitype/StillImage" />
        <dc:title />
      </cc:Work>
    </rdf:RDF>
  </metadata>
  <g
     inkscape:groupmode="layer"
     id="layer2"
     inkscape:label="Layer"
     transform="translate(-1901.7979,-318.78185)"
     style="display:inline">
    <g
       id="g4804">
      <g
         transform="translate(42,0)"
         id="g4469"
         style="display:inline">
        <g
           transform="translate(5.6568542,0)"
           id="g5072">
          <g
             id="g7588"
             transform="matrix(0.85489672,0,0,0.86663804,1842.529,-92.221476)" />
        </g>
      </g>
    </g>
    <g
       id="g4874"
       transform="translate(0.08109,-0.996255)">
      <g
         transform="translate(-3e-5,0)"
         id="g4851" />
      <g
         transform="matrix(0,1,-1,0,2436.3902,-2184.279)"
         id="g4855">
        <g
           id="g4882"
           transform="translate(0,-1)" />
      </g>
    </g>
    <g
       id="g5002"
       transform="translate(0.40184856,0.23104423)" />
    <g
       id="g4998"
       transform="translate(0.21301941,0.98954673)" />
    <g
       id="g3356"
       transform="translate(-5.0661,0)" />
    <g
       id="g4896"
       transform="translate(0.4128,-2.34005)">
      <g
         style="stroke:#1a1a1a"
         transform="translate(0.29165,0)"
         id="g6262" />
    </g>
    <g
       id="g8006">
      <text
         sodipodi:linespacing="125%"
         id="text4827"
         y="476.59912"
         x="1533.3113"
         style="font-size:66.72117615px;font-style:normal;font-variant:normal;font-weight:400;text-align:start;line-height:125%;letter-spacing:0px;word-spacing:0px;text-anchor:start;fill:#000000;fill-opacity:1;stroke:none;font-family:Calibri"
         xml:space="preserve"
         transform="scale(1.2790103,0.78185455)"><tspan
           id="tspan4829"
           y="0"
           x="0"
           sodipodi:role="line"><tspan
             id="tspan4831"
             style="font-size:66.72117615px;font-style:normal;font-variant:normal;font-weight:400;fill:#000000;font-family:Calibri"
             dy="0"
             dx="0" /></tspan></text>
    </g>
    <g
       id="g59670">
      <g
         id="g7541"
         style="fill:#194955;fill-opacity:1;stroke:none;display:inline"
         transform="matrix(0.41014792,0,0,0.41578098,1872.1267,297.64255)">
        <g
           id="g5787"
           style="fill:#194955;fill-opacity:1;stroke:none">
          <path
             style="fill:#194955;fill-opacity:1;stroke:none"
             d="m 358.02309,101.10276 c -2.63366,-14.733012 6.68243,-20.293507 9.72579,-34.477956 1.15888,2.721986 1.59032,6.925989 1.86297,9.919258 1.20477,13.226617 -3.65844,20.615998 -4.86323,25.842688 -2.51711,2.32468 -6.47659,2.06103 -6.72553,-1.28399 z"
             id="path4392"
             inkscape:connector-curvature="0"
             sodipodi:nodetypes="ccscc" />
        </g>
        <path
           id="path5687"
           transform="matrix(1.1697319,0,0,1.1538843,-79.337771,-25.815027)"
           d="m 348.56836,86.726562 c 4.21597,12.192194 -1.28002,25.286878 10.73242,36.617188 -3.94972,9.22046 -5.60267,18.4397 -6.14258,27.66016 -6.75647,8.56194 -10.81257,15.63122 -14.01953,22.23047 -3.20696,6.59924 -4.37638,12.01363 -8.67187,18.12304 -4.46557,6.35131 -11.93464,12.37758 -16.92774,18.23633 -4.99309,5.85875 -8.13802,12.76105 -12.21484,19.44531 -4.66457,7.64792 -8.91888,13.01944 -13.53125,19.23242 -7.1028,9.56765 -14.09748,18.72402 -18.30078,26.76758 -4.91002,9.39597 -7.78422,17.7212 -8.48438,24.9043 -0.85191,8.73996 -1.28859,14.91338 0.57031,29.28906 1.66097,12.84492 10.87724,33.53278 8.36329,43.63867 -2.12182,8.52952 -11.42052,13.72607 -24.97852,16.77149 -23.66583,5.31585 -60.04073,7.01785 -92.36133,7.81054 -15.98348,3.37782 -12.5537,6.36359 -5.56054,8.15821 30.89136,2.19515 71.10526,3.28016 100.6582,1.75781 18.70427,-0.9635 33.54221,-4.28541 45.48242,-14.58789 5.6771,-4.89843 10.69815,-11.38925 15.16602,-19.98633 8.72606,-6.36511 10.12227,-7.95826 12.70507,-12.45508 -0.25559,26.67643 -11.65445,32.81528 -9.57421,40.27344 1.10002,3.94385 4.28738,5.60646 10.48632,6.4336 2.61136,0.34844 10.48438,-1.24024 10.48438,-1.24024 14.02637,0.29931 29.92712,1.43703 44.89062,0.41406 5.01655,-0.34295 12.52232,-2.08782 15.05078,-1.53515 2.74122,0.59917 8.14014,2.77642 12.43555,3.84179 5.12771,1.2718 10.34891,1.88847 15.58789,2.25782 3.85013,0.72246 5.32412,3.12193 8.94141,4.22461 0.2692,1.33934 0.0132,-0.53652 1.48828,-0.68946 0,0 1.42325,2.02557 -0.0273,-1.17773 -0.81852,-1.80755 -3.02096,-2.96015 -4.28321,-4.57617 -1.85022,-2.36881 -2.78731,-4.26589 -5.42578,-5.42579 -1.99925,-0.87889 -5.1875,-0.73828 -5.1875,-0.73828 0,0 -2.09886,-1.66513 -3.10937,-1.69531 -8.85777,-0.26455 -7.23105,-2.9021 -16.35352,-4.87109 -4.00292,-0.55844 -3.78495,0.31691 -6.81641,0.36718 -20.32805,0.33723 -47.24092,-0.59029 -52.42773,-8.42773 -2.37638,-3.59078 -1.30359,-10.57306 0.91016,-19.06641 3.9681,-15.22423 12.30356,-34.7872 13.53711,-51.00976 0.59901,-7.87771 0.10983,-14.94537 -2.4961,-20.60938 0,0 5.47198,-9.90901 8.04492,-18.2832 3.27941,-10.67359 5.66711,-23.36134 9.43164,-33.86914 3.34213,-9.32872 9.58438,-17.42769 12.57227,-25.27148 3.13602,-8.23266 4.44281,-16.47338 5.06055,-24.69922 1.76961,-23.56413 -3.88687,-46.17425 -0.65821,-49.61719 0.54641,-0.58268 1.50781,-0.97333 3.17188,-0.96094 5.3085,0.0395 15.38056,2.58022 16.71094,-0.83008 0.65995,-0.0444 1.581,-0.3105 2.10156,-2.0625 1.66996,1.35104 1.89486,-0.61161 2.0293,-1.30664 0.35299,-2.34153 0.81111,-6.62017 -0.11914,-8.85156 -0.71652,-1.7187 -2.28382,-2.51656 -3.81836,-3.54687 -4.40939,-2.9605 -13.29493,-7.86719 -13.29493,-7.86719 0.75863,-0.62511 1.45988,-1.37243 1.1875,-2.58789 -0.36996,-1.82381 -11.77231,-7.35134 -19.29882,-7.3711 -2.23965,-0.006 -4.13057,0.5077 -5.28516,2.06446 -4.44241,-9.42913 -12.13826,-20.795664 -18.43164,-25.302738 z"
           style="fill:#194955;fill-opacity:1;stroke:none"
           inkscape:connector-curvature="0" />
        <path
           sodipodi:nodetypes="ccscc"
           inkscape:connector-curvature="0"
           id="path5779"
           d="m 358.82863,116.97749 11.83208,1.21115 c 0,0 0.67104,-5.4787 -4.79805,-5.91604 -4.73526,-0.37866 -7.16717,4.6583 -7.16717,4.6583 z"
           style="fill:#194955;fill-opacity:1;stroke:none" />
        <path
           sodipodi:nodetypes="ccsccccsccsccscc"
           inkscape:connector-curvature="0"
           id="path5776"
           d="m 366.10967,113.07725 c -2.86944,-0.28963 -5.41062,1.84338 -6.79483,3.17158 -0.22802,0.23761 -0.96021,0.74774 -0.84627,1.05166 0.12314,0.32848 1.48806,0.25617 1.84393,0.26201 0.41983,1.3e-4 0.61537,0.087 0.6875,0.125 0.0721,0.038 0.10338,0.061 0.21875,0.25 0.0101,0.0107 0.0205,0.0211 0.0312,0.0312 1.0282,1.50228 2.36915,2.37512 3.8125,2.5625 1.35371,0.17574 2.71383,-0.27114 3.90625,-1.09375 0.36893,-0.014 1.4651,0.47911 1.88624,0.0749 0.58363,-0.61982 -0.27049,-1.19041 -0.29249,-1.54366 -0.0154,-0.24727 -0.12218,-0.44562 -0.21875,-0.65625 0,0 -0.0864,-0.24692 -0.0937,-0.28125 -0.0458,-0.21465 -0.18261,-0.84492 -0.6875,-1.71875 -0.58565,-1.0136 -1.72441,-2.0225 -3.45283,-2.23525 z"
           style="fill:#194955;fill-opacity:1;stroke:none" />
        <path
           id="path5699"
           transform="matrix(1.1697319,0,0,1.1538843,-79.337771,-25.815027)"
           d="m 348.4707,86.578125 c 0,0 3.23668,7.897444 4.1836,11.595703 1.07781,4.209462 0.99318,8.583182 2.52734,12.644532 0.81566,2.15928 3.49526,6.09715 5.74024,8.56445 0.69931,0.79231 2.1595,4.18527 -1.6211,3.96094 -3.94972,9.22046 -5.60267,18.4397 -6.14258,27.66016 -6.75647,8.56194 -10.81257,15.63122 -14.01953,22.23047 -3.20696,6.59924 -4.37638,12.01363 -8.67187,18.12304 -4.46557,6.35131 -11.93464,12.37758 -16.92774,18.23633 -4.99309,5.85875 -8.13802,12.76105 -12.21484,19.44531 -4.66457,7.64792 -8.91888,13.01944 -13.53125,19.23242 -7.1028,9.56765 -14.09748,18.72402 -18.30078,26.76758 -4.91002,9.39597 -7.78422,17.7212 -8.48438,24.9043 -0.85191,8.73996 -1.28859,14.91338 0.57031,29.28906 1.66097,12.84492 10.87724,33.53278 8.36329,43.63867 -2.12182,8.52952 -11.42052,13.72607 -24.97852,16.77149 -23.66583,5.31585 -60.04073,7.01785 -92.36133,7.81054 -15.98348,3.37782 -12.5537,6.36359 -5.56054,8.15821 30.89136,2.19515 71.10526,3.28016 100.6582,1.75781 18.70427,-0.9635 33.54221,-4.28541 45.48242,-14.58789 5.6771,-4.89843 10.69815,-11.38925 15.16602,-19.98633 8.72606,-6.36511 10.12227,-7.95826 12.70507,-12.45508 0,0 1.41982,-6.9215 1.70118,-10.98242 0.49752,-7.18111 2.55215,-15.23177 1.78711,-22.38867 -1.64816,-15.41825 -5.74173,-15.77721 -9.90625,-24.52344 -3.08619,-6.48152 -6.95156,-14.28699 -6.23438,-21.44726 1.03228,-10.30616 7.22425,-15.48924 10.93164,-25.14258 2.45546,-6.39355 5.03249,-16.70499 8.24805,-22.74219 4.99171,-9.37192 10.66365,-12.9833 15.16015,-22.60937 3.38787,-7.25272 2.5404,-13.54919 4.08399,-21.41993 1.26909,-6.47109 3.849,-12.60983 6.03516,-18.82421 2.00771,-5.70715 5.78093,-10.92621 6.5,-16.94141 0.43179,-3.61208 3.68165,-14.56258 4.49218,-12.58789 2.02096,6.20344 9.95154,6.28249 21.56446,3.54883 l 13.41406,1.04687 3.91992,-0.6289 0.82617,-0.83594 2.05664,-2.14649 c 0,0 0.43422,-2.37374 0.16407,-3.51367 -0.31081,-1.31143 -0.93574,-2.67853 -1.98047,-3.51367 -1.07987,-0.86322 -2.67357,-0.67444 -3.95899,-1.16992 -4.43885,-1.71103 -8.16389,-5.56976 -12.87304,-6.19141 -2.38582,-0.31494 -4.769,0.95673 -7.09571,0.33594 -1.73686,-0.46341 -2.60348,-1.71864 -4.29101,-2.3418 -1.24047,-0.45807 -3.73363,1.11431 -3.79493,-0.16797 -0.10411,-2.17833 1.40818,-4.6695 6.11719,-6.59375 3.5116,-1.43494 12.57617,1.62696 12.57617,1.62696 l 1.01758,-2.05469 c -5.46395,1.60328 -12.36493,-3.966 -20.37109,-4.52148 -1.46033,-0.10132 -4.35547,0.5625 -4.35547,0.5625 C 360.68186,101.14913 354.57596,94.5398 348.4707,86.578125 z"
           style="fill:#194955;fill-opacity:1;stroke:none"
           inkscape:connector-curvature="0" />
        <path
           sodipodi:nodetypes="ccssc"
           inkscape:connector-curvature="0"
           id="path5781"
           d="m 348.50386,106.29869 c -4.3139,-9.041766 -11.05655,-18.377991 -15.88014,-25.589052 0,0 2.81836,10.427985 5.76932,15.245402 1.37116,2.238396 6.1622,15.45605 9.32071,14.94503 1.49381,-0.24169 0.79011,-4.60138 0.79011,-4.60138 z"
           style="fill:#194955;fill-opacity:1;stroke:none" />
        <path
           sodipodi:nodetypes="csssssssssssscsscccccssssssssc"
           inkscape:connector-curvature="0"
           id="path5703"
           d="m 336.93976,150.97071 c -5.24027,7.17466 -12.01277,19.43151 -14.93976,25.37304 -3.4759,7.05578 -4.95601,13.79027 -10.5625,21.65625 -5.91175,8.29427 -14.80965,15.25387 -20.125,21.40625 -5.22785,6.0511 -8.79943,13.72385 -13.78125,21.78125 -5.62451,9.09687 -10.75387,15.49825 -16.09375,22.59375 -8.33417,11.07425 -16.40156,21.56601 -20.96875,30.1875 -5.54526,10.46781 -8.62311,19.51943 -9.34375,26.8125 -0.99039,10.02295 -1.5107,16.33249 0.625,32.625 0.85771,6.54317 3.97753,16.21395 6.59375,25.65625 2.61622,9.4423 5.10378,18.53038 3.0625,26.625 -1.61701,6.41215 -6.03939,11.50332 -11.8125,15.15625 -5.77311,3.65293 -12.95774,6.16262 -21.25,8 -26.79862,5.93799 -65.9206,7.89991 -101.9375,8.875 33.79927,1.94749 73.46012,2.91417 103.75,1.375 21.4138,-1.08813 37.31707,-4.75015 50.09375,-15.625 6.07135,-5.16762 11.5507,-12.07751 16.53125,-21.53125 0.36547,-0.70023 0.8938,-1.31482 1.53125,-1.78125 9.47013,-6.81427 10.50315,-7.85509 12.96875,-12.03125 0.18963,-0.96729 6.23805,-5.78084 6.49323,-9.41408 -22.14334,11.41218 -35.78212,4.59312 -37.09111,-9.80912 -12.86363,-24.93962 -14.23051,-46.28357 2.52868,-71.49555 4.21767,-6.34492 7.78958,-7.47563 11.63479,-12.01167 3.84521,-4.53604 8.88826,-13.2366 10.5823,-17.5878 1.00952,-2.59298 1.2371,-6.14128 1.5,-10.28125 0.2629,-4.13997 5.02781,-8.96757 7.55941,-13.65625 3.71581,-6.8819 7.64639,-16.87346 12.28168,-21.23853 10.07851,-9.49097 12.35234,-20.3828 14.51102,-31.25575 1.62207,-8.17014 6.99662,-17.41103 9.48283,-24.3826 1.62497,-4.55658 4.62633,-12.52512 6.17568,-16.02169 z"
           style="fill:#194955;fill-opacity:1;stroke:none" />
        <path
           id="path5689"
           transform="matrix(1.1697319,0,0,1.1538843,-79.337771,-25.815027)"
           d="m 359.30078,123.34375 c -3.94972,9.22046 -5.60267,18.4397 -6.14258,27.66016 -6.75647,8.56194 -10.81257,15.63122 -14.01953,22.23047 -3.20696,6.59924 -4.37638,12.01363 -8.67187,18.12304 -4.46557,6.35131 -11.93464,12.37758 -16.92774,18.23633 -4.99309,5.85875 -8.13802,12.76105 -12.21484,19.44531 -4.66457,7.64792 -8.91888,13.01944 -13.53125,19.23242 -7.1028,9.56765 -14.09748,18.72402 -18.30078,26.76758 -4.91002,9.39597 -7.78422,17.7212 -8.48438,24.9043 -0.85191,8.73996 -1.28859,14.91338 0.57031,29.28906 1.66097,12.84492 10.87724,33.53278 8.36329,43.63867 -2.12182,8.52952 -11.42052,13.72607 -24.97852,16.77149 -23.66583,5.31585 -60.04073,7.01785 -92.36133,7.81054 -15.98348,3.37782 -12.5537,6.36359 -5.56054,8.15821 30.89136,2.19515 71.10526,3.28016 100.6582,1.75781 18.70427,-0.9635 33.54221,-4.28541 45.48242,-14.58789 5.6771,-4.89843 10.69815,-11.38925 15.16602,-19.98633 8.72606,-6.36511 10.12227,-7.95826 12.70507,-12.45508 l 0.78516,-8.77343 c 0,0 -7.50813,8.28994 -12.54492,10.0664 -2.79727,0.98659 -5.19757,0.5348 -8.08008,1.22461 -2.27487,0.5444 -4.7659,1.59319 -7.07617,1.95313 -4.3597,0.67924 -5.92819,-1.79528 -9.06445,-4.93946 -4.39888,-4.40995 -4.67643,-11.30757 -5.74805,-17.48437 -1.87053,-10.78164 -6.2164,-21.38342 -5.75,-32.32031 0.45998,-10.78641 2.51723,-19.69367 6.97266,-29.5 7.76265,-17.08554 22.24263,-30.24125 31.35937,-46.625 3.29408,-5.91981 4.46235,-13.01708 8.36328,-18.54493 5.16269,-7.31582 11.74142,-11.9508 16.45117,-19.57421 3.68502,-5.96472 3.46434,-13.69584 6.27149,-20.13282 3.5038,-8.03446 10.92332,-17.85256 13.01758,-23.33593 1.63669,-4.28534 1.23388,-7.76706 1.70117,-12.3379 0.51834,-5.07017 2.71875,-15.99023 2.71875,-15.99023 l -1.12891,-0.68164 z"
           style="fill:#194955;fill-opacity:1;stroke:none"
           inkscape:connector-curvature="0" />
        <path
           id="path5942"
           transform="matrix(1.1697319,0,0,1.1538843,-79.337771,-25.815027)"
           d="m 273.9375,351.39453 c -0.0512,0.0158 -0.0912,0.0571 -0.11719,0.12305 l -4.5664,8.3789 c 1.05822,5.04746 1.52685,9.60048 0.6875,12.97461 -2.12181,8.52952 -11.42052,13.72607 -24.97852,16.77149 -23.66583,5.31585 -60.04073,7.01785 -92.36133,7.81054 -15.98348,3.37782 -12.5537,6.36359 -5.56054,8.15821 30.89136,2.19515 71.10526,3.28016 100.6582,1.75781 18.70427,-0.9635 33.54221,-4.28541 45.48242,-14.58789 4.4838,-3.86879 8.55939,-8.73152 12.27539,-14.83984 l 2.48047,-12.60547 c 0,0 -1.594,-0.0287 -3.14648,0.66992 -3.29202,1.48132 -8.15281,4.44722 -9.5625,5.34961 -4.12445,2.64016 -5.82992,1.36965 -8.59766,0.88672 -1.66009,-0.28967 -6.33044,-4.53707 -6.77148,-6.8418 -1.70501,-8.90958 -5.15437,-14.24308 -5.92188,-14.00586 z"
           style="fill:#194955;fill-opacity:1;stroke:none"
           inkscape:connector-curvature="0" />
        <path
           id="path5673"
           transform="matrix(1.1697319,0,0,1.1538843,-79.337771,-25.815027)"
           d="m 359.37109,122.84766 c -3.94972,9.22045 -5.67298,18.93579 -6.21289,28.15625 -6.75647,8.56194 -10.81257,15.63122 -14.01953,22.23047 -3.20696,6.59924 -4.37638,12.01363 -8.67187,18.12304 -4.46557,6.35131 -11.93464,12.37758 -16.92774,18.23633 -4.99309,5.85875 -8.13802,12.76105 -12.21484,19.44531 -4.66457,7.64792 -8.91888,13.01944 -13.53125,19.23242 -7.1028,9.56765 -14.09748,18.72402 -18.30078,26.76758 -4.91002,9.39597 -7.78422,17.7212 -8.48438,24.9043 -0.85191,8.73996 -1.28859,14.91338 0.57031,29.28906 1.66097,12.84492 10.87724,33.53278 8.36329,43.63867 -2.12182,8.52952 -11.42052,13.72607 -24.97852,16.77149 -23.66583,5.31585 -60.04073,7.01785 -92.36133,7.81054 -4.64758,0.98219 -7.66054,1.9308 -9.41406,2.82813 3.0893,0.029 6.38066,0.0563 9.23828,-0.0195 29.60016,-0.78578 78.9422,-2.42179 92.4375,-5.45313 7.15991,-1.60827 15.89282,-3.80619 20.97852,-7.06836 5.08569,-3.26216 9.3117,-8.53035 10.76758,-14.38281 1.85668,-7.4637 -0.15672,-14.10813 -2.40235,-22.32422 -2.24562,-8.21608 -4.871,-16.5736 -5.58203,-22.07226 -1.81824,-14.06119 -1.40798,-19.3846 -0.5625,-28.0586 0.59685,-6.12323 3.20631,-13.85972 7.9082,-22.85742 3.83616,-7.34097 11.10448,-17.29037 18.23438,-26.89453 4.55422,-6.13465 6.89507,-11.27724 11.73633,-19.21484 4.30057,-7.05112 6.25986,-13.98235 10.60937,-19.08594 4.44142,-5.21143 11.04788,-11.25336 16.23633,-18.63281 4.9067,-6.97873 5.51002,-13.17564 8.42773,-19.17969 3.08602,-6.35038 6.87742,-12.95882 13.38477,-21.20508 0.69433,-0.88307 0.9746,-2.12653 1.03906,-3.25391 0.51372,-8.7731 0.86334,-18.29162 4.50586,-26.79492 l -0.77344,-0.93554 z m -36.96484,227.66601 c -0.50248,0.14502 -1.13457,1.66627 -1.63867,2.37695 -1.07047,1.50917 -2.98633,4.68165 -2.98633,4.68165 -5.1135,7.15824 -9.38325,5.67101 -14.39844,11.61523 -6.90213,8.1807 -11.45215,13.78553 -16.53125,18.16797 -10.69011,9.22384 -23.99527,12.36049 -42.21094,13.29883 -14.70043,0.75726 -63.57685,1.85135 -92.22265,1.07226 -3.03265,-0.0825 -7.18808,-0.13583 -10.91211,-0.23633 -1.34434,1.66979 1.51485,3.08939 5.53516,4.1211 30.89136,2.19515 71.10526,3.28016 100.6582,1.75781 18.70427,-0.9635 33.54221,-4.28541 45.48242,-14.58789 5.6771,-4.89843 10.69815,-11.38925 15.16602,-19.98633 8.72606,-6.36511 10.12165,-7.95956 12.83593,-12.75586 0,0 2.66473,-8.71163 1.42969,-9.49609 -0.0658,-0.0418 -0.13525,-0.05 -0.20703,-0.0293 z"
           style="fill:#194955;fill-opacity:1;stroke:none"
           inkscape:connector-curvature="0" />
        <path
           sodipodi:nodetypes="ccsssscssssccssssssssssssssssscccsccsssssssssccccccccc"
           inkscape:connector-curvature="0"
           id="path5693"
           d="m 390.40625,432.71875 c -1.48003,-0.60605 -3.34774,-1.21654 -6,-1.78125 -4.68235,-0.64437 -4.42276,0.34824 -7.96875,0.40625 -23.77838,0.38912 -55.24532,-0.67525 -61.3125,-9.71875 -2.77973,-4.14335 -1.52699,-12.19966 1.0625,-22 4.64162,-17.567 14.36958,-40.12479 15.8125,-58.84375 0.70069,-9.08996 0.14199,-17.24564 -2.90625,-23.78125 0,0 6.3966,-11.4309 9.40625,-21.09375 3.83603,-12.31609 6.62775,-26.96897 11.03125,-39.09375 3.90939,-10.76426 11.22372,-20.10542 14.71875,-29.15625 3.6683,-9.49953 5.18366,-19.00833 5.90625,-28.5 1.80699,-23.73584 -2.97917,-46.64088 -1.71875,-54.71875 -1.83472,-0.041 -3.67101,0.77122 -4.875,2.15625 0,0 -2.12631,2.44592 -4.46875,5.625 -2.34244,3.17908 -6.61586,6.81283 -7.95382,11.3125 -1.58262,5.32248 -2.91216,9.28774 -3.70904,11.96838 -1.45471,4.89354 -6.89814,9.5598 -8.66523,18.00037 -1.83184,8.74984 -0.51587,16.03765 -1.0625,22.46875 -0.40119,4.72002 -0.89647,11.05002 -3.26493,15.875 -3.08552,6.28579 -4.66738,10.34171 -8,15.5 -3.65737,5.66094 -8.69841,11.5506 -12.21875,19.21875 -2.75095,5.99221 -3.50923,11.39711 -5.15625,13.96875 -2.28896,3.57396 -6.82514,6.99157 -9.875,13.75 -3.13121,6.93867 -0.56736,16.84879 1.06214,22.53052 1.29666,4.52121 3.70301,7.70426 5.5,10.03125 1.79699,2.32699 2.97394,3.85062 3.71875,6.03125 2.00246,5.86271 2.4186,12.77477 1.875,19.59375 -1.21058,15.18552 -6.73958,27.54992 -9.14454,46.52331 -0.95646,7.54576 -3.10863,17.06688 0.5,26.6875 1.55428,4.14372 1.75413,6.63141 5.66727,8.47336 3.31652,1.56113 12.53964,0.84606 15.69287,0.99595 9.69533,1.69442 2.7691,1.2074 11.01499,4.91117 2.87931,0.0804 4.27529,0.45216 7.17529,0.48369 2.19729,-0.4324 4.29279,0.49079 5.29004,0.43359 5.08221,-0.29152 10.75087,-0.32217 17.70996,-0.80176 1.87099,-0.23247 3.81581,-0.50188 5.71875,-0.78125 3.60612,-0.75613 3.37286,-2.13703 6.56882,-1.95284 4.19246,0.24163 7.32959,2.11755 9.46619,2.35086 1.78109,0.19447 2.62064,0.92927 4.2952,1.5664 1.62174,0.61704 4.70727,0.85148 6.38271,1.30281 1.5518,0.41803 3.25062,-0.47833 4.81959,-0.13026 1.70613,0.3785 2.99475,1.91743 4.68934,2.34467 1.39001,0.35045 2.87035,0.007 4.29855,0.13026 1.52944,0.132 3.12084,0.11457 4.55908,0.6513 2.17777,0.81271 3.99797,2.38834 5.86167,3.77752 0.96287,0.71771 2.73544,2.34466 2.73544,2.34466 l -0.65129,-2.2144 -5.08012,-4.42882 -3.64726,-4.94985 -3.38674,-1.43286 -4.68933,0 -3.25649,-2.2144 -5.86166,-0.26052 z"
           style="fill:#194955;fill-opacity:1;stroke:none" />
        <path
           sodipodi:nodetypes="ccsssscssssccccssssssssssssssssssssssssssssssccccccc"
           inkscape:connector-curvature="0"
           id="path5710"
           d="m 387.5625,431.7188 c -0.91853,-0.27052 -1.95402,-0.52528 -3.15625,-0.78125 -4.68235,-0.64437 -4.42276,0.34824 -7.96875,0.40625 -23.77838,0.38912 -55.24532,-0.67525 -61.3125,-9.71875 -2.77973,-4.14335 -1.52699,-12.19966 1.0625,-22 4.64162,-17.567 14.36958,-40.12479 15.8125,-58.84375 0.70069,-9.08996 0.14199,-17.24564 -2.90625,-23.78125 0,0 6.3966,-11.4309 9.40625,-21.09375 3.83603,-12.31609 6.62775,-26.96897 11.03125,-39.09375 3.90939,-10.76426 11.22372,-20.10542 14.71875,-29.15625 3.6683,-9.49953 5.18366,-19.00833 5.90625,-28.5 1.62149,-21.29919 -2.34986,-40.34546 -2.21763,-50.19223 -0.0729,-0.002 -0.14586,-0.002 -0.21875,0 l 0,-5e-5 c -0.84758,0.0691 -1.66211,0.4821 -2.21875,1.125 0,0 -2.0492,2.33458 -4.3125,5.40625 -2.2633,3.07167 -4.81159,6.72482 -5.90625,10.40625 -1.39569,4.6938 -0.98614,7.66429 -1.96987,10.97348 -1.67678,5.64057 -5.69755,9.65417 -7.28125,17.21875 -1.68839,8.06463 -0.4125,15.21302 -1,22.125 -0.45128,5.30929 -2.66096,11.85414 -5.15625,16.9375 -3.03113,6.17498 -4.66826,10.41372 -8.15625,15.8125 -3.79915,5.88039 -8.77028,11.67251 -12.0625,18.84375 -2.45987,5.35818 -3.16453,10.9099 -5.34375,14.3125 -2.62855,4.10418 -7.60596,7.44917 -10.2942,13.40625 -2.65053,5.8735 -1.68683,12.38193 -0.15625,17.71875 1.13549,3.95923 3.22015,6.72646 5,9.03125 1.77985,2.30479 3.23139,4.16721 4.15625,6.875 2.18831,6.40685 3.23409,13.72647 2.6692,20.8125 -1.28771,16.15302 -8.76495,31.2985 -11.05909,49.39758 -0.9738,7.68253 -2.89848,16.68951 0.3125,25.25 1.27839,3.40819 0.88595,5.23378 4.00611,7.00389 3.33137,1.88994 7.57358,1.36344 10.64673,1.50952 3.07315,0.14608 5.35185,-0.0778 7.39946,0.64131 0.63306,0.22232 1.55445,0.86436 2.75,1.71875 1.19555,0.85439 3.17572,2.39145 5.35054,2.81929 5.03588,0.99069 9.04423,-1.02871 11.8125,-1.1875 6.42517,-0.36855 13.61794,1.11238 21.3125,-0.0312 4.08719,-0.60745 5.46513,-0.78609 9.18556,-1.4865 4.4477,-0.83733 7.76625,0.41053 9.46584,0.80444 1.52802,0.35414 2.38574,0.27221 3.90777,0.65129 2.10368,0.52395 4.04211,2.64556 6.1222,3.25648 2.16632,0.63625 3.96123,-0.39376 6.12218,0.26052 1.64819,0.49903 2.64516,2.38424 4.29856,2.86571 1.95979,0.57069 4.09475,0.10636 6.12218,-0.13026 1.23497,-0.14413 3.64726,-0.78156 3.64726,-0.78156 l -2.08414,-2.47492 -3.38675,-1.43286 -4.29855,0 -3.25649,-2.2144 -5.86167,-0.26052 z"
           style="fill:#194955;fill-opacity:1;stroke:none" />
        <path
           sodipodi:nodetypes="cssscccccc"
           inkscape:connector-curvature="0"
           id="path5752"
           d="m 311.64697,441.04103 c 0,0 -11.44197,-0.68234 -15.19692,-1.54172 -4.83312,-1.10613 -6.12771,-2.13777 -7.04785,-4.62514 -1.1311,-3.05765 2.68599,-8.30212 3.52393,-11.45276 3.94816,-14.84512 3.52392,-19.38158 3.52392,-19.38158 l -10.35153,27.31041 0,6.38711 5.72638,3.74417 8.36932,1.10122 z"
           style="fill:#194955;fill-opacity:1;stroke:none" />
        <path
           sodipodi:nodetypes="cccsscsssccccscsscscscssssccccccc"
           inkscape:connector-curvature="0"
           style="fill:#194955;fill-opacity:1;stroke:none"
           d="m 280.42578,350.60742 c -0.0318,-0.007 -0.0659,-0.006 -0.10156,0.004 l -1.27149,9.72851 c -0.25559,26.67643 -11.65445,32.81528 -9.57421,40.27344 1.10002,3.94385 4.28738,5.60646 10.48632,6.4336 2.61136,0.34844 10.48438,-1.24024 10.48438,-1.24024 14.02637,0.29931 29.92712,1.43703 44.89062,0.41406 5.01655,-0.34295 12.52232,-2.08782 15.05078,-1.53515 2.74122,0.59917 8.14014,2.77643 12.43555,3.84179 4.07582,1.01091 8.21054,1.60919 12.32813,1.89454 l 4.34375,0.62304 4.32031,4.03125 2.25586,0 c -0.70699,-0.75201 -3.24134,-3.3709 -5.07813,-4.16797 -0.82098,-0.35626 -2.6582,-0.32617 -2.6582,-0.32617 -5.23463,-1.35143 -11.00257,-2.49813 -15.9082,-3.71484 -3.97149,-0.98503 -8.09359,-2.44426 -11.44922,-3.17774 -2.38057,-0.52034 -3.88157,-0.30974 -6.74024,0.10157 -2.85866,0.41135 -7.19193,0.95265 -9.48437,1.10937 -14.69905,1.00489 -30.13138,-0.33396 -44.55274,-0.91992 0,0 -2.21509,0.10134 -4.43554,0.44531 -2.22045,0.34397 -5.02942,0.36069 -5.44922,0.30469 -2.92332,-0.39007 -4.92451,-0.99892 -6.11914,-1.70703 -1.19463,-0.70812 -1.96659,-1.28549 -2.35547,-2.67969 -0.31543,-1.13089 -0.84751,-2.18078 -0.16797,-3.95508 0.67954,-1.7743 1.62203,-4.7219 2.97852,-7.71875 2.71299,-5.99369 5.78813,-14.72825 5.90429,-28.46484 0.01,-1.1616 0.85179,-9.37721 -0.13281,-9.59766 z m 107.58594,64.44336 c -0.10268,-0.008 -0.23138,0.01 -0.35742,0.0254 l 0.46093,0 c -0.0334,-0.005 -0.0714,-0.023 -0.10351,-0.0254 z"
           transform="matrix(1.1697319,0,0,1.1538843,-30.209029,-25.815027)"
           id="path5653-1" />
        <path
           style="fill:#194955;fill-opacity:1;stroke:none"
           d="m 341.76882,238.3742 c 0.43066,-0.91104 12.68087,3.29264 13.66267,0.76453 -12.06449,-7.76786 -5.19703,-22.03831 -4.69059,-27.99662 0.63252,-7.44161 -2.41957,-9.6898 -0.88918,-16.99976 1.38171,-6.59978 4.99597,-7.46908 6.91733,-13.93241 1.18952,-4.00147 1.11678,-8.52221 2.30658,-12.5236 1.65339,-5.56047 7.53429,-11.12023 7.53429,-11.12023 0.49945,10.72272 3.02964,23.46371 1.57365,42.5891 -0.5912,7.76577 -3.4464,20.10828 -6.82297,22.26749 -1.4835,0.94865 2.81559,3.95565 2.14857,5.68297 -2.23715,5.79338 -6.75555,11.29382 -10.74344,17.3257 l -6.67697,-2.59074 z m 9.54978,8.31652 c -1.67378,2.71013 -3.17856,5.5422 -4.27671,8.56588 -4.40351,12.12478 -7.1952,27.70019 -11.03124,40.01628 -1.89257,6.07633 -5.35783,13.82105 -9.75692,17.04597 l 2.83733,4.67289 c 3.04824,6.53561 3.6206,14.69133 2.91991,23.78129 -1.44292,18.71896 -11.19274,41.29325 -15.83436,58.86025 -2.58949,9.80034 -3.84497,17.85668 -1.06524,22.00003 6.06718,9.0435 37.54756,10.11291 61.32594,9.72379 3.54599,-0.058 3.29081,-1.06777 7.97316,-0.4234 0,0 0.0299,1.21366 -3.74642,1.88878 -3.29566,0.58919 -10.23956,0.61835 -12.91531,1.01603 -6.93371,1.0305 -14.03125,-0.40143 -21.02962,0 -3.67987,0.21108 -7.36864,1.97587 -10.98524,1.26439 -2.69249,-0.52968 -4.62324,-2.1712 -7.21232,-3.08045 -5.49364,-1.9293 -12.88494,0.17305 -17.94929,-2.70004 -2.41349,-1.36921 -2.29894,-2.0892 -3.27346,-4.68728 -2.77302,-7.39288 -0.40891,-17.03862 0.58398,-24.87179 2.17208,-17.13613 9.72796,-32.33586 11.10062,-49.55447 0.58834,-7.38015 0.18296,-15.09431 -2.21005,-22.10047 -2.24635,-6.5768 -7.21213,-9.0777 -9.12808,-15.75823 -1.42163,-4.95694 -2.12112,-10.76998 0,-15.47032 2.28995,-5.07448 6.4456,-8.28423 9.44816,-12.97239 2.76537,-4.31782 3.4341,-8.4789 5.57338,-13.13876 3.04097,-6.62396 8.1506,-12.93292 12.1059,-19.05501 2.54275,-3.93572 4.15339,-7.28934 5.89655,-11.00051 0,0 1.6349,1.69089 2.40756,2.20904 2.63307,1.76575 8.24177,3.7685 8.24177,3.7685 z"
           id="path5680"
           inkscape:connector-curvature="0"
           sodipodi:nodetypes="scsssscsssccscccsssccssssssssssssssscscsc" />
        <path
           sodipodi:nodetypes="csssccsssc"
           inkscape:connector-curvature="0"
           id="path5756"
           d="m 304.03712,429.6984 c 0,0 1.84543,2.89827 3.2657,3.75556 1.62758,0.98243 3.66327,1.08711 5.5517,1.30628 3.29799,0.38277 6.65451,-0.30725 9.9604,0 1.76446,0.16399 5.22513,0.97971 5.22513,0.97971 l 2.44928,1.79614 c 0,0 -4.20191,-0.78187 -6.53141,-0.97971 -3.90818,-0.33192 -7.86253,0.95964 -11.75654,0.48985 -2.13769,-0.2579 -4.50998,-0.4681 -6.20484,-1.79613 -3.38641,-2.65346 -1.95942,-5.5517 -1.95942,-5.5517 z"
           style="fill:#194955;fill-opacity:1;stroke:none" />
        <path
           id="path5653"
           transform="matrix(1.1697319,0,0,1.1538843,-79.337771,-25.815027)"
           d="m 359.37109,123.45703 c -4.58934,8.87552 -5.67298,18.32642 -6.21289,27.54688 -6.75647,8.56194 -10.81257,15.63122 -14.01953,22.23047 -3.20696,6.59924 -4.37638,12.01363 -8.67187,18.12304 -4.46557,6.35131 -11.93464,12.37758 -16.92774,18.23633 -4.99309,5.85875 -8.13802,12.76105 -12.21484,19.44531 -4.66457,7.64792 -8.91888,13.01944 -13.53125,19.23242 -7.1028,9.56765 -14.09748,18.72402 -18.30078,26.76758 -4.91002,9.39597 -7.78422,17.7212 -8.48438,24.9043 -0.85191,8.73996 -1.28859,14.91338 0.57031,29.28906 1.66097,12.84492 10.87724,33.53278 8.36329,43.63867 -2.12182,8.52952 -11.42052,13.72607 -24.97852,16.77149 -23.66583,5.31585 -60.04073,7.01785 -92.36133,7.81054 -2.47462,0.52297 -4.48741,1.03554 -6.08984,1.53711 33.21118,-0.97219 74.95286,-1.61803 98.36523,-6.87695 6.97049,-1.56572 12.94678,-3.6849 17.63086,-6.68945 4.68408,-3.00456 8.80695,-6.81015 10.06641,-11.87305 1.55845,-6.26485 -0.39764,-14.08116 -2.61914,-22.20898 -2.2215,-8.12783 -4.91902,-16.49312 -5.68946,-22.45118 -1.83846,-14.21757 -1.38383,-19.97288 -0.53515,-28.67968 0.64822,-6.6503 3.37038,-14.66363 8.17578,-23.85938 4.01873,-7.69036 10.96951,-16.84759 18.08594,-26.43359 4.58314,-6.17361 8.897,-11.62443 13.65039,-19.41797 4.1893,-6.86868 6.7406,-14.42322 11.41015,-19.90234 4.71577,-5.53335 11.57924,-11.17872 16.40821,-18.04688 4.60275,-6.54642 5.86032,-12.22339 8.92187,-18.52344 3.14616,-6.47414 7.0465,-13.29011 13.67774,-21.69336 0.34886,-0.44569 0.55745,-1.00218 0.58789,-1.57031 0.0994,-7.40701 0.99715,-18.53501 4.72265,-27.30664 z m -37.81054,230.93945 c -1.08808,0.16328 -2.28951,3.5864 -2.84961,4.55664 -2.51656,4.35934 -3.30534,5.27239 -11.96875,11.5918 -0.33341,0.24892 -0.60912,0.57519 -0.80078,0.94727 -4.33816,8.34748 -10.27782,14.11291 -15.6543,18.75195 -11.31179,9.76025 -23.60385,12.56087 -42.0625,13.51172 -29.23322,1.50588 -74.24136,0.94423 -107.02344,-1.18164 0.29757,1.20514 2.7214,2.23683 5.83985,3.03711 30.89136,2.19515 71.10526,3.28016 100.6582,1.75781 18.70427,-0.9635 33.54221,-4.28541 45.48242,-14.58789 5.6771,-4.89843 10.69815,-11.38925 15.16602,-19.98633 8.72606,-6.36511 10.27014,-7.45413 12.875,-11.8789 0.43096,0.52153 1.14754,-5.81026 0.55468,-6.50782 -0.0713,-0.0198 -0.14425,-0.0226 -0.21679,-0.0117 z"
           style="fill:#194955;fill-opacity:1;stroke:none"
           inkscape:connector-curvature="0" />
        <path
           sodipodi:nodetypes="ccsc"
           inkscape:connector-curvature="0"
           id="path5764"
           d="m 349.75698,104.33726 c 7.32055,-2.39269 20.94164,1.96336 28.59282,5.05786 -3.53692,-2.8827 -10.80424,-5.80439 -15.58943,-7.23148 -4.95546,-1.47786 -11.2685,-1.22164 -13.00339,2.17362 z"
           style="fill:#194955;fill-opacity:1;stroke:none" />
        <path
           sodipodi:nodetypes="csssscsscccccccccsccccssscc"
           inkscape:connector-curvature="0"
           id="path5768"
           d="m 387.36828,137.05809 c 0,0 -0.32329,0.28778 -1.14274,0.44264 -1.21603,0.22982 -3.64436,1.70752 -4.86947,1.88256 -3.92394,0.56062 -8.74178,-1.9127 -11.88081,0.1861 -0.88913,0.59448 -1.46776,1.70561 -1.63235,2.76243 -0.11562,0.7424 0.50226,2.19739 0.50226,2.19739 0,0 0.36951,-1.8244 0.94174,-2.5113 0.54673,-0.6563 1.34322,-1.3126 2.19739,-1.31844 5.1986,-0.0355 15.94677,1.38122 15.94677,1.38122 l 3.70417,-0.69061 1.37,-1.58871 1.3584,-0.21449 1.42989,-2.14484 1.42989,0.57196 0.64345,-1.2869 0.42897,-9.79476 -1.50138,2.14484 c 0,0 -0.7537,1.15628 -1.3584,1.21541 -0.7444,0.0728 -1.93036,-1.14392 -1.93036,-1.14392 l -2.28782,-0.50046 -1.42989,0.28598 -0.92944,-0.92943 c 0,0 -0.87269,0.58304 -0.35747,1.42989 1.29338,2.12588 3.03714,0.33702 4.64715,2.07335 1.45728,1.57161 1.74124,4.5281 0.64345,6.22002 -0.68652,1.05806 -2.64531,0.78644 -2.64531,0.78644 z"
           style="fill:#194955;fill-opacity:1;stroke:none" />
        <path
           sodipodi:nodetypes="ccccsssccc"
           inkscape:connector-curvature="0"
           id="path5770"
           d="m 392.55183,140.09344 -1.55373,-2.01986 -2.25292,-1.16531 -2.09755,0.38844 c 0,0 -1.26573,0.79669 -1.27368,1.66212 -0.005,0.59048 0.54996,1.15416 1.08761,1.39836 0.82656,0.37542 1.4799,0.41984 2.3613,0.20237 0.60758,-0.14988 2.02213,-0.73215 2.02213,-0.73215 l 0.92997,1.12058 z"
           style="fill:#194955;fill-opacity:1;stroke:none" />
        <path
           sodipodi:nodetypes="cccssssssssssccsscccsscssscccssscscsssscsssssscccssccccc"
           id="path3563-1"
           transform="matrix(1.1697319,0,0,1.1538843,-79.337771,-25.815027)"
           d="m 348.56836,86.726562 c 4.21597,12.192194 -1.28002,25.286878 10.73242,36.617188 -3.94972,9.22046 -5.60267,18.4397 -6.14258,27.66016 -6.75647,8.56194 -10.81257,15.63122 -14.01953,22.23047 -3.20696,6.59924 -4.37638,12.01363 -8.67187,18.12304 -4.46557,6.35131 -11.93464,12.37758 -16.92774,18.23633 -4.99309,5.85875 -8.13802,12.76105 -12.21484,19.44531 -4.66457,7.64792 -8.91888,13.01944 -13.53125,19.23242 -7.1028,9.56765 -14.09748,18.72402 -18.30078,26.76758 -4.91002,9.39597 -7.78422,17.7212 -8.48438,24.9043 -0.85191,8.73996 -1.28859,14.91338 0.57031,29.28906 1.66097,12.84492 10.87724,33.53278 8.36329,43.63867 -2.12182,8.52952 -11.42052,13.72607 -24.97852,16.77149 -23.67011,5.31681 -60.05396,7.01804 -92.37891,7.81054 -15.97806,3.37973 -12.52294,6.36693 -5.51757,8.16016 30.88801,2.19393 71.08801,3.27779 100.63281,1.75586 18.70427,-0.9635 33.54221,-4.28541 45.48242,-14.58789 5.6771,-4.89843 10.69815,-11.38925 15.16602,-19.98633 8.31125,-6.06253 9.76006,-7.41834 12.13086,-11.45508 0.11831,-0.20146 0.50474,-0.94833 0.57421,-1 -0.25559,26.67643 -11.65445,32.81528 -9.57421,40.27344 1.10002,3.94385 4.28738,5.60646 10.48632,6.4336 2.61136,0.34844 10.48438,-1.24024 10.48438,-1.24024 14.02637,0.29931 29.92712,1.43703 44.89062,0.41406 5.01655,-0.34295 12.52232,-2.08782 15.05078,-1.53515 2.74122,0.59917 8.14014,2.77642 12.43555,3.84179 5.12771,1.2718 10.34891,1.88847 15.58789,2.25782 3.85013,0.72246 5.72646,1.20396 9.34375,2.30664 0.0772,0.38419 0.69495,0.6087 1.53321,0.74414 -0.18289,-0.19623 -0.34933,-0.4167 -0.47461,-0.69336 -0.81852,-1.80755 -3.02096,-2.96015 -4.28321,-4.57617 -1.85022,-2.36881 -2.78731,-4.26589 -5.42578,-5.42579 -1.99925,-0.87889 -5.1875,-0.73828 -5.1875,-0.73828 0,0 -2.09886,-1.66513 -3.10937,-1.69531 -8.85777,-0.26455 -7.23105,-2.9021 -16.35352,-4.87109 -4.00292,-0.55844 -3.78495,0.31691 -6.81641,0.36718 -20.32805,0.33723 -47.24092,-0.59029 -52.42773,-8.42773 -2.37638,-3.59078 -1.30359,-10.57306 0.91016,-19.06641 3.9681,-15.22423 12.30356,-34.7872 13.53711,-51.00976 0.59901,-7.87771 0.10983,-14.94537 -2.4961,-20.60938 0,0 5.47198,-9.90901 8.04492,-18.2832 3.27941,-10.67359 5.66711,-23.36134 9.43164,-33.86914 3.34213,-9.32872 9.58438,-17.42769 12.57227,-25.27148 3.13602,-8.23266 4.44281,-16.47338 5.06055,-24.69922 1.76961,-23.56413 -3.88687,-46.17425 -0.65821,-49.61719 0.54641,-0.58268 1.50781,-0.97333 3.17188,-0.96094 5.3085,0.0395 15.38056,2.58022 16.71094,-0.83008 0.65995,-0.0444 1.581,-0.3105 2.10156,-2.0625 1.66996,1.35104 1.89486,-0.61161 2.0293,-1.30664 0.35299,-2.34153 0.81111,-6.62017 -0.11914,-8.85156 -0.71652,-1.7187 -2.28382,-2.51656 -3.81836,-3.54687 -4.40939,-2.9605 -13.29493,-7.86719 -13.29493,-7.86719 0.75863,-0.62511 1.45988,-1.37243 1.1875,-2.58789 -0.36996,-1.82381 -11.77231,-7.35134 -19.29882,-7.3711 -2.23965,-0.006 -4.13057,0.5077 -5.28516,2.06446 -4.44241,-9.42913 -12.13826,-20.795664 -18.43164,-25.302738 z"
           style="fill:#194955;fill-opacity:1;stroke:none"
           inkscape:connector-curvature="0" />
        <path
           sodipodi:nodetypes="cssscsc"
           inkscape:connector-curvature="0"
           id="path5610"
           d="m 334.54619,87.675778 c 0,0 2.15995,5.97581 3.65724,8.503087 2.50858,4.234225 6.77383,6.745375 8.96025,11.154585 0.4466,0.90063 0.67673,1.922 0.73145,2.9258 0.21115,3.87321 -2.9258,3.74867 -2.9258,3.74867 0,0 -0.19583,-1.97332 -2.19434,-3.84011 -6.39367,-5.97227 -7.75894,-14.943109 -8.2288,-22.492032 z"
           style="fill:#194955;fill-opacity:1;stroke:none" />
        <path
           style="fill:#194955;fill-opacity:1;stroke:none"
           d="m 368.69231,118.58072 c -2.20403,1.65084 -4.90362,1.5699 -6.73834,-1.11076 -0.30965,-0.50733 -0.65469,-0.77684 -1.65578,-0.77716 1.3646,-1.30938 3.37205,-3.11643 5.75001,-2.87641 2.78551,0.34286 3.40688,3.64195 3.40688,3.64195 0.52497,0.92417 -0.0236,1.09053 -0.76277,1.12238 z"
           id="path5572"
           inkscape:connector-curvature="0"
           sodipodi:nodetypes="cccccc" />
        <path
           id="path5730"
           d="m 365.70204,113.58234 c -1.67848,0 -3.03556,1.35484 -3.03556,3.03994 0,1.68509 1.35708,3.03993 3.03556,3.03993 1.67849,0 3.03557,-1.35484 3.03557,-3.03993 0,-1.6851 -1.35708,-3.03994 -3.03557,-3.03994 z"
           style="fill:#194955;fill-opacity:1;stroke:none"
           inkscape:connector-curvature="0" />
        <path
           id="path5550"
           d="m 365.70204,114.24047 c -1.31934,0 -2.38508,1.06857 -2.38508,2.38181 0,1.31324 1.06574,2.3818 2.38508,2.3818 1.31935,0 2.38509,-1.06856 2.38509,-2.3818 0,-1.31324 -1.06574,-2.38181 -2.38509,-2.38181 z"
           style="fill:#194955;fill-opacity:1;stroke:none"
           inkscape:connector-curvature="0" />
        <path
           inkscape:connector-curvature="0"
           id="path5772"
           d="m 390.79131,138.45291 -2.23453,0.75534 -1.73098,-0.15737 -0.40914,-0.75533 1.10153,-0.94417 1.91981,0.0315 z"
           style="fill:#194955;fill-opacity:1;stroke:none" />
        <path
           style="font-size:medium;font-style:normal;font-variant:normal;font-weight:normal;font-stretch:normal;text-indent:0;text-align:start;text-decoration:none;line-height:normal;letter-spacing:normal;word-spacing:normal;text-transform:none;direction:ltr;block-progression:tb;writing-mode:lr-tb;text-anchor:start;baseline-shift:baseline;color:#000000;fill:#194955;fill-opacity:1;stroke:none;stroke-width:0.80000001;marker:none;visibility:visible;display:inline;overflow:visible;enable-background:accumulate;font-family:Sans;-inkscape-font-specification:Sans"
           d="m 330.53125,77.5625 c 3.01706,5.751562 4.08975,13.329791 6.84375,18.125 2.3276,4.052767 6.05873,7.28696 8.65625,10.9375 2.26834,3.18792 1.53125,5.78125 1.53125,5.78125 0,0 1.84207,-2.77604 -0.71875,-6.375 -2.69158,-3.78274 -6.45956,-6.939684 -8.59375,-10.84375 -3.34701,-6.122673 -4.43023,-14.955804 -7.71875,-17.625 z m 34.625,35.84375 c -2.16042,0.21443 -3.92332,1.84695 -5.125,3 0,0 -0.43242,0.35054 -0.3675,0.59969 0.084,0.32256 0.64875,0.0878 0.64875,0.0878 0.46466,1.5e-4 0.70545,0.0675 0.875,0.15625 0.16955,0.0887 0.30069,0.21334 0.4375,0.4375 0.96795,1.41424 2.19946,2.17953 3.5,2.34375 1.30054,0.16422 2.64526,-0.25072 3.8125,-1.125 0.31622,-0.0208 1.06851,0.21955 1.13844,-0.1349 0.21058,-1.06727 -0.47084,-2.4284 -0.9196,-3.20885 -0.5371,-0.93408 -1.51893,-1.96626 -3.0625,-2.15625 -0.32499,-0.0328 -0.62887,-0.0306 -0.9375,0 z m 0.15625,0.8125 c 0.22556,-0.0186 0.4537,-0.0236 0.6875,0 1.24194,0.15287 1.97128,0.94666 2.4375,1.75 0.46622,0.80334 0.625,1.5625 0.625,1.5625 l 0,0.0625 0.0312,0.0625 c 0.11392,0.20055 0.1522,0.35165 0.15625,0.40625 -0.0283,0.0137 -0.23592,0.11093 -0.5625,0.125 l -0.125,0 -0.125,0.0625 c -1.03679,0.77656 -2.12856,1.13371 -3.1875,1 -1.05894,-0.13371 -2.10198,-0.73358 -2.96875,-2 -0.17284,-0.28317 -0.3881,-0.54578 -0.71875,-0.71875 -0.0906,-0.0474 -0.24076,-0.0298 -0.34375,-0.0625 1.13849,-1.03412 2.51482,-2.11973 4.09375,-2.25 z M 397.40625,126.25 c -0.48007,0.33898 -0.88195,0.80588 -1.15625,1.28125 -0.93318,1.61715 -0.53125,3.5625 -0.53125,3.5625 0,0 0.15635,-1.51373 1.96875,-2.28125 0.098,-0.0415 0.20416,-0.1366 0.3125,-0.1875 z m -7.9375,0.78125 c -0.11958,0.0106 -0.22817,0.0296 -0.34375,0.0625 -0.52223,0.14888 -1.07038,0.67621 -1.09375,1.21875 -0.0204,0.47468 0.41994,0.94149 0.84375,1.15625 0.59239,0.30019 1.62966,-0.0659 2.28125,0.0625 2.82367,0.55654 3.1875,2.34375 3.1875,2.34375 0,0 -0.17106,-2.93802 -2.375,-4.09375 -0.74507,-0.39071 -1.66296,-0.824 -2.5,-0.75 z m 5.4375,5.4375 c 0.0472,1.56197 0.12732,3.84625 -0.40625,5.375 l 0.9375,0.34375 c 0.55266,-1.38808 0.25451,-4.70808 -0.53125,-5.71875 z M 388.375,136.625 c -0.71323,-0.0171 -1.40404,0.18031 -1.96875,0.625 -0.24187,0.19046 -0.39409,0.42569 -0.5,0.71875 -0.10591,0.29306 -0.16425,0.65687 0.0312,1 0.23381,0.41029 0.63796,0.66789 1.0625,0.78125 0.42454,0.11336 0.88563,0.10943 1.375,0.0625 0.58509,-0.0561 1.22678,-0.26038 1.75,-0.46875 0.39785,-0.15844 0.55368,-0.24867 0.6875,-0.3125 0.0916,0.11994 0.11383,0.15008 0.21875,0.28125 0.22538,0.28176 0.49635,0.54998 0.875,0.75 0.37865,0.20002 0.87379,0.3066 1.40625,0.21875 l -0.1875,-1 c -0.34683,0.0572 -0.55221,0.0106 -0.75,-0.0937 -0.19779,-0.10448 -0.37885,-0.27041 -0.5625,-0.5 -0.35134,-0.43923 -0.67301,-1.08533 -1.34375,-1.40625 l 0,-0.0312 c -0.009,-0.005 -0.0224,0.005 -0.0312,0 -0.0115,-0.007 -0.0197,-0.0246 -0.0312,-0.0312 -0.63087,-0.36874 -1.34049,-0.57715 -2.03125,-0.59375 z m 0,1 c 0.51779,0.0146 1.09093,0.19552 1.59375,0.5 l 0.0312,0 0.0312,0.0312 c 0.0163,0.007 0.0451,0.083 0.0625,0.0937 -0.14177,0.0633 -0.14556,0.0773 -0.34375,0.15625 -0.48465,0.19301 -1.09202,0.40139 -1.46875,0.4375 -0.42636,0.0409 -0.7935,0.0322 -1.03125,-0.0312 -0.23775,-0.0635 -0.34147,-0.17524 -0.4375,-0.34375 0.005,0.009 -0.01,-0.0429 0.0312,-0.15625 0.0409,-0.1133 0.12747,-0.23398 0.1875,-0.28125 0.35299,-0.27797 0.82596,-0.42081 1.34375,-0.40625 z"
           id="path5540"
           inkscape:connector-curvature="0"
           sodipodi:nodetypes="csscsscccscccscsscccccscccccccsccccccccccccccsccsccccccsscscsccscccsccccccccccccccccccc" />
        <path
           sodipodi:nodetypes="ccccccccscsssccsccc"
           inkscape:connector-curvature="0"
           id="path6848"
           d="m 397.21875,126.875 c -0.26498,0.25506 -0.51673,0.51655 -0.6875,0.8125 -0.40216,0.69692 -0.53461,1.46535 -0.5625,2.09375 0.32216,-0.46201 0.79154,-0.94153 1.59375,-1.28125 0.002,-7.2e-4 0.0522,-0.0237 0.0625,-0.0312 0.40072,-0.36428 0.46858,-1.68873 -0.40625,-1.59375 z M 389.5,127.5 c -0.0946,0.008 -0.16399,0.038 -0.25,0.0625 -0.15921,0.0454 -0.35312,0.1563 -0.5,0.3125 -0.14688,0.1562 -0.24502,0.35321 -0.25,0.46875 -0.003,0.0814 0.045,0.20315 0.15625,0.34375 0.11124,0.1406 0.2914,0.26971 0.4375,0.34375 0.12392,0.0628 0.4449,0.099 0.84375,0.0625 0.39885,-0.0365 0.85337,-0.12173 1.3125,-0.0312 0.81246,0.16013 1.44101,0.41733 1.9375,0.71875 -0.31601,-0.60488 -0.73642,-1.19486 -1.4375,-1.5625 -0.73062,-0.38314 -1.60886,-0.77543 -2.25,-0.71875 z"
           style="font-size:medium;font-style:normal;font-variant:normal;font-weight:normal;font-stretch:normal;text-indent:0;text-align:start;text-decoration:none;line-height:normal;letter-spacing:normal;word-spacing:normal;text-transform:none;direction:ltr;block-progression:tb;writing-mode:lr-tb;text-anchor:start;baseline-shift:baseline;color:#000000;fill:#194955;fill-opacity:1;stroke:none;stroke-width:0.80000001;marker:none;visibility:visible;display:inline;overflow:visible;enable-background:accumulate;font-family:Sans;-inkscape-font-specification:Sans" />
        <path
           id="path5546"
           d="m 365.70204,115.33736 c -0.75103,0 -1.30095,0.56012 -1.30095,1.28492 0,0.7248 0.54992,1.28492 1.30095,1.28492 0.75104,0 1.30096,-0.56012 1.30096,-1.28492 0,-0.7248 -0.54992,-1.28492 -1.30096,-1.28492 z"
           style="fill:#194955;fill-opacity:1;stroke:none"
           inkscape:connector-curvature="0" />
        <circle
           transform="matrix(1.1057349,0,0,1.1057349,-39.046166,-13.019268)"
           id="path5557"
           style="fill:#194955;fill-opacity:1;stroke:none"
           cx="367.10425"
           cy="117.57413"
           r="0.72350073"
           d="m 367.82775,117.57413 c 0,0.39958 -0.32392,0.7235 -0.7235,0.7235 -0.39958,0 -0.7235,-0.32392 -0.7235,-0.7235 0,-0.39958 0.32392,-0.7235 0.7235,-0.7235 0.39958,0 0.7235,0.32392 0.7235,0.7235 z"
           sodipodi:cx="367.10425"
           sodipodi:cy="117.57413"
           sodipodi:rx="0.72350073"
           sodipodi:ry="0.72350073" />
        <path
           sodipodi:nodetypes="cssscssssc"
           inkscape:connector-curvature="0"
           id="path5754"
           d="m 298.48542,415.65587 c 0,0 -0.13843,4.72778 -0.65314,7.02126 -0.55801,2.48643 -2.75886,4.64048 -2.61257,7.18455 0.0838,1.45806 1.03225,2.79044 1.95943,3.91885 1.35468,1.64868 5.87827,3.42899 5.87827,3.42899 0,0 -5.16412,0.77276 -7.02127,-0.16329 -1.58242,-0.79758 -2.94987,-2.26732 -3.59228,-3.91884 -0.71034,-1.82613 -0.51972,-2.84603 0,-4.73527 0.70563,-2.56503 2.89008,-6.11254 4.08214,-8.49084 0.76543,-1.52713 1.95942,-4.24541 1.95942,-4.24541 z"
           style="fill:#194955;fill-opacity:1;stroke:none" />
        <path
           sodipodi:nodetypes="ccccccc"
           inkscape:connector-curvature="0"
           id="path5761"
           d="m 393.844,126.51188 c -1.74042,-0.46601 -2.96851,-1.37117 -5.86631,-0.84514 l -11.68875,-6.27865 c -2.36427,-1.57424 -4.53452,-3.17619 -4.43045,-5.10304 -0.2334,-0.65786 1.07449,-2.0638 3.41276,-0.49422 l 14.24759,7.88705 c 3.18556,1.72032 3.97702,3.29102 4.32516,4.834 z"
           style="fill:#194955;fill-opacity:1;stroke:none" />
        <path
           sodipodi:nodetypes="sssssssssss"
           inkscape:connector-curvature="0"
           id="path5766"
           d="m 373.52601,124.17749 c 2.28088,2.80291 -1.14117,7.6736 -3.75343,10.17056 -3.46003,3.30732 -8.24087,4.21713 -12.95535,3.39019 -3.91194,-0.68617 -7.37948,-2.34406 -9.08087,-5.93284 -1.74699,-3.68495 -1.98385,-8.71271 -0.72646,-12.59212 0.75242,-2.32143 2.51077,-4.35021 4.60096,-4.47988 2.9003,-0.17994 -2.53907,5.08884 -0.48431,7.1436 1.36984,1.36984 3.93208,-0.46881 5.81175,0 2.08469,0.51995 3.60599,2.50701 5.69068,3.02696 1.95799,0.48835 4.04152,0.15009 6.0539,0 1.62792,-0.12141 3.81277,-1.99265 4.84313,-0.72647 z"
           style="fill:#194955;fill-opacity:1;stroke:none" />
        <path
           style="fill:#194955;fill-opacity:1;fill-rule:evenodd;stroke:none"
           d="m 333.68053,205.38833 c -1.796,9.56567 -12.23954,21.97481 -4.96275,28.55719 l 28.12226,26.92533 5.78988,9.79103 -4.13562,7.34328 0,8.97512 c 0,4.89551 3.30849,17.1343 3.30849,17.1343 0,0 4.13564,-1.63183 4.13564,-4.07959 0,-2.44776 6.61699,-26.92535 6.61699,-26.92535 l 0.82713,-17.95023 -20.67813,-28.55717 13.23401,-34.26862 0,0"
           id="path4508"
           inkscape:connector-curvature="0"
           sodipodi:nodetypes="cccccscsccccc" />
      </g>
      <g
         transform="matrix(0.58010218,0,0,0.58010218,1957.5853,499.89321)"
         id="g59412"
         style="fill:none;stroke:#194955;stroke-width:9.5;stroke-opacity:1">
        <circle
           d="M 103.25,54 C 103.25,81.200024 81.200024,103.25 54,103.25 26.799976,103.25 4.75,81.200024 4.75,54 4.75,26.799976 26.799976,4.75 54,4.75 c 27.200024,0 49.25,22.049976 49.25,49.25 z"
           id="circle59414"
           r="49.25"
           cy="54"
           cx="54"
           sodipodi:cx="54"
           sodipodi:cy="54"
           sodipodi:rx="49.25"
           sodipodi:ry="49.25"
           style="fill:none;stroke:#194955;stroke-opacity:1" />
        <circle
           style="fill:none;stroke:#194955;stroke-opacity:1"
           d="m 220.25,54 c 0,27.200024 -22.04998,49.25 -49.25,49.25 -27.20002,0 -49.25,-22.049976 -49.25,-49.25 0,-27.200024 22.04998,-49.25 49.25,-49.25 27.20002,0 49.25,22.049976 49.25,49.25 z"
           id="circle59416"
           r="49.25"
           cy="54"
           cx="171"
           sodipodi:cx="171"
           sodipodi:cy="54"
           sodipodi:rx="49.25"
           sodipodi:ry="49.25" />
        <circle
           d="m 337.25,54 c 0,27.200024 -22.04998,49.25 -49.25,49.25 -27.20002,0 -49.25,-22.049976 -49.25,-49.25 0,-27.200024 22.04998,-49.25 49.25,-49.25 27.20002,0 49.25,22.049976 49.25,49.25 z"
           id="circle59418"
           r="49.25"
           cy="54"
           cx="288"
           sodipodi:cx="288"
           sodipodi:cy="54"
           sodipodi:rx="49.25"
           sodipodi:ry="49.25"
           style="fill:none;stroke:#194955;stroke-opacity:1" />
        <circle
           d="m 161.75,104 c 0,27.20002 -22.04998,49.25 -49.25,49.25 -27.200024,0 -49.25,-22.04998 -49.25,-49.25 0,-27.200024 22.049976,-49.25 49.25,-49.25 27.20002,0 49.25,22.049976 49.25,49.25 z"
           id="circle59420"
           r="49.25"
           cy="104"
           cx="112.5"
           sodipodi:cx="112.5"
           sodipodi:cy="104"
           sodipodi:rx="49.25"
           sodipodi:ry="49.25"
           style="fill:none;stroke:#194955;stroke-opacity:1" />
        <circle
           d="m 278.75,104 c 0,27.20002 -22.04998,49.25 -49.25,49.25 -27.20002,0 -49.25,-22.04998 -49.25,-49.25 0,-27.200024 22.04998,-49.25 49.25,-49.25 27.20002,0 49.25,22.049976 49.25,49.25 z"
           id="circle59422"
           r="49.25"
           cy="104"
           cx="229.5"
           sodipodi:cx="229.5"
           sodipodi:cy="104"
           sodipodi:rx="49.25"
           sodipodi:ry="49.25"
           style="fill:none;stroke:#194955;stroke-opacity:1" />
        <path
           id="path59424"
           d="m 93.4,24.45 a 49.25,49.25 0 0 1 0,59.1"
           inkscape:connector-curvature="0"
           style="fill:none;stroke:#194955;stroke-opacity:1" />
        <path
           style="fill:none;stroke:#194955;stroke-opacity:1"
           id="path59426"
           d="m 210.4,24.45 a 49.25,49.25 0 0 1 0,59.1 M 171,103.25 A 49.25,49.25 0 0 1 141.45,93.4"
           inkscape:connector-curvature="0" />
        <path
           id="path59428"
           d="M 288,103.25 A 49.25,49.25 0 0 1 258.45,93.4"
           inkscape:connector-curvature="0"
           style="fill:none;stroke:#194955;stroke-opacity:1" />
      </g>
      <g
         transform="matrix(0.44622632,0,0,0.4419743,1827.4549,287.67326)"
         id="g9696"
         style="fill:#194955;fill-opacity:1;stroke:none;display:inline">
        <g
           style="fill:#194955;fill-opacity:1;stroke:none"
           id="g9689">
          <path
             id="path9582"
             d="m 653.25,291.9375 c 0,0 -7.20045,8.37426 -5.46875,13.15625 2.46883,6.81747 13.13463,15.21813 11.53125,25.9375 -4.64349,31.04394 -28.15832,63.47256 -40.625,90.84375 -2.31507,5.08284 -5.15147,5.06876 -8.9375,5.75 -2.78141,0.50047 -5.33962,3.12829 -7.375,4.84375 -2.56302,-2.046 -7.72995,-2.37911 -8.3125,1.03125 -1.90361,-1.11018 -5.08481,-0.87119 -6.75,2.15625 0,0 -3.1467,-0.32661 -4.53125,0.34375 -1.88868,0.91446 -3.63364,2.50926 -3.875,4.59375 -0.20361,1.75847 0.8125,3.0625 0.8125,3.0625 0,0 1.12204,-3.0262 3.28125,-3.375 0.68315,-0.11036 1.24655,0.75705 1.9375,0.71875 0.68672,-0.038 1.84375,-0.9375 1.84375,-0.9375 0,0 3.34641,2.26569 5.25,2.78125 3.13659,0.8495 6.48825,0.75801 9.71875,0.40625 3.46332,-0.37712 10.28125,-2.375 10.28125,-2.375 2.14372,1.28934 2.91631,1.8783 6.625,1.8125 3.83361,-0.068 8.26265,-1.34707 10.59375,-6 1.10728,-2.21015 -1.5625,-10.59375 -1.5625,-10.59375 2.33376,-3.40958 5.80475,-5.9966 5.84375,-9.875 2.1281,-1.59608 4.06429,-3.30379 3.75,-6.59375 3.17364,-2.32717 4.1879,-4.92432 4.25,-7.625 2.63287,-1.7871 4.6346,-4.12398 4.5625,-8.28125 2.93495,-2.09424 4.32429,-4.89873 4.53125,-8.28125 2.29598,-1.78619 4.6129,-3.54071 4.875,-8.96875 1.37565,-1.57118 4.55185,-2.45934 5.375,-9.96875 4.06951,-1.7433 6.05197,-5.51867 5.1875,-9.625 0,0 1.68611,-6.84089 4.3125,-9.84375 2.62637,-3.00288 7.15184,-7.97504 8.375,-12.875 0.95584,-3.82911 -1.48102,-9.08696 -2.21875,-14.28125 C 674.92371,308.55581 678.75,304 678.75,304 l -25.5,-12.0625 z m 26.8125,9.625 c 0,0 2.42326,8.97801 6.03125,12.5625 5.14377,5.11025 13.44716,13.93764 16.15625,20.15625 7.23505,16.60778 5.65304,61.57706 3.875,83.34375 -0.64931,7.94887 -0.63671,5.46418 -2,9.625 -1.14381,3.49096 -3.77647,3.60001 -7.5625,4.28125 -2.78141,0.50047 -5.74587,1.53454 -7.78125,3.25 -2.56302,-2.046 -7.72995,-2.37911 -8.3125,1.03125 -1.90361,-1.11018 -5.08481,-0.87119 -6.75,2.15625 0,0 -3.1467,-0.32661 -4.53125,0.34375 -1.88868,0.91446 -3.63364,2.50926 -3.875,4.59375 -0.20361,1.75847 0.8125,3.0625 0.8125,3.0625 0,0 1.12204,-3.0262 3.28125,-3.375 0.68315,-0.11036 1.24655,0.75705 1.9375,0.71875 0.68672,-0.038 1.84375,-0.9375 1.84375,-0.9375 0,0 3.34641,2.26569 5.25,2.78125 3.13659,0.8495 6.48825,0.75801 9.71875,0.40625 3.46332,-0.37712 10.28125,-2.375 10.28125,-2.375 2.14372,1.28934 2.91631,1.8783 6.625,1.8125 3.83361,-0.068 8.26265,-1.34707 10.59375,-6 1.10728,-2.21015 -1.34375,-8.0625 -1.34375,-8.0625 1.25444,-1.56175 2.62096,-5.03886 1,-8.5625 1.24268,-2.35202 2.25166,-4.75309 0.5625,-7.59375 1.87589,-3.45958 1.6909,-6.21893 0.59375,-8.6875 1.61754,-2.74031 2.40305,-5.70916 0.5625,-9.4375 1.75952,-3.14704 1.85092,-6.32171 0.59375,-9.46875 1.3133,-2.59562 2.67477,-5.16737 0.59375,-10.1875 0.57294,-2.00817 3.02506,-4.1395 0.5625,-11.28125 2.9353,-3.31421 3.12902,-7.59361 0.59375,-10.9375 0,0 -0.24874,-3.44438 0.84375,-7.28125 1.09248,-3.83687 3.33026,-8.64071 2.34375,-13.59375 -0.77091,-3.87057 -5.77096,-10.86822 -8.65625,-15.25 C 707.61874,309.10763 708.25,301.5625 708.25,301.5625 l -28.1875,0 z"
             style="fill:#194955;fill-opacity:1;stroke:none"
             inkscape:connector-curvature="0" />
          <path
             id="path9660"
             d="m 653.25,291.9375 c 0,0 -7.20045,8.37426 -5.46875,13.15625 0.27543,0.76057 0.67395,1.54275 1.125,2.34375 4.08593,1.85303 9.22189,4.46203 11.90625,7.0625 2.79434,2.70701 3.07715,7.38965 5.84375,10.125 3.52344,3.48363 8.30715,4.57742 12.03125,4.875 -0.53082,-2.98055 -1.68508,-6.30752 -2.15625,-9.625 C 674.92371,308.55581 678.75,304 678.75,304 l -25.5,-12.0625 z m 26.8125,9.625 c 0,0 1.24477,4.52557 3.25,8.4375 4.34633,2.44064 11.88825,6.8188 16.03125,10.09375 2.85076,2.25347 6.85382,6.9175 10.125,8.5 3.22484,1.56008 7.86851,2.0571 11.9375,2.15625 -1.83767,-3.84858 -5.28533,-8.73041 -7.5,-12.09375 C 707.61874,309.10763 708.25,301.5625 708.25,301.5625 l -28.1875,0 z"
             style="fill:#194955;fill-opacity:1;stroke:none"
             inkscape:connector-curvature="0" />
          <path
             id="path6036"
             d="m 653.25,291.9375 c 0,0 -7.20045,8.37426 -5.46875,13.15625 2.46883,6.81747 13.13463,15.21813 11.53125,25.9375 -4.64349,31.04394 -28.15832,63.47256 -40.625,90.84375 -2.31507,5.08284 -5.15147,5.06876 -8.9375,5.75 -2.78141,0.50047 -5.33962,3.12829 -7.375,4.84375 -2.56302,-2.046 -7.72995,-2.37911 -8.3125,1.03125 -1.90361,-1.11018 -5.08481,-0.87119 -6.75,2.15625 0,0 -3.1467,-0.32661 -4.53125,0.34375 -1.88868,0.91446 -3.63364,2.50926 -3.875,4.59375 -0.20361,1.75847 0.8125,3.0625 0.8125,3.0625 0,0 1.12204,-3.0262 3.28125,-3.375 0.68315,-0.11036 1.24655,0.75705 1.9375,0.71875 0.68672,-0.038 1.84375,-0.9375 1.84375,-0.9375 0,0 3.34641,2.26569 5.25,2.78125 3.13659,0.8495 6.48825,0.75801 9.71875,0.40625 3.46332,-0.37712 10.28125,-2.375 10.28125,-2.375 2.14372,1.28934 2.91631,1.8783 6.625,1.8125 3.83361,-0.068 8.26265,-1.34707 10.59375,-6 1.10728,-2.21015 -1.5625,-10.59375 -1.5625,-10.59375 2.33376,-3.40958 5.80475,-5.9966 5.84375,-9.875 2.1281,-1.59608 4.06429,-3.30379 3.75,-6.59375 3.17364,-2.32717 4.1879,-4.92432 4.25,-7.625 2.63287,-1.7871 4.6346,-4.12398 4.5625,-8.28125 2.93495,-2.09424 4.32429,-4.89873 4.53125,-8.28125 2.29598,-1.78619 4.6129,-3.54071 4.875,-8.96875 1.37565,-1.57118 4.55185,-2.45934 5.375,-9.96875 4.06951,-1.7433 6.05197,-5.51867 5.1875,-9.625 0,0 1.68611,-6.84089 4.3125,-9.84375 2.62637,-3.00288 7.15184,-7.97504 8.375,-12.875 0.95584,-3.82911 -1.48102,-9.08696 -2.21875,-14.28125 C 674.92371,308.55581 678.75,304 678.75,304 l -25.5,-12.0625 z m 26.8125,9.625 c 0,0 2.42326,8.97801 6.03125,12.5625 5.14377,5.11025 13.44716,13.93764 16.15625,20.15625 7.23505,16.60778 5.65304,61.57706 3.875,83.34375 -0.64931,7.94887 -0.63671,5.46418 -2,9.625 -1.14381,3.49096 -3.77647,3.60001 -7.5625,4.28125 -2.78141,0.50047 -5.74587,1.53454 -7.78125,3.25 -2.56302,-2.046 -7.72995,-2.37911 -8.3125,1.03125 -1.90361,-1.11018 -5.08481,-0.87119 -6.75,2.15625 0,0 -3.1467,-0.32661 -4.53125,0.34375 -1.88868,0.91446 -3.63364,2.50926 -3.875,4.59375 -0.20361,1.75847 0.8125,3.0625 0.8125,3.0625 0,0 1.12204,-3.0262 3.28125,-3.375 0.68315,-0.11036 1.24655,0.75705 1.9375,0.71875 0.68672,-0.038 1.84375,-0.9375 1.84375,-0.9375 0,0 3.34641,2.26569 5.25,2.78125 3.13659,0.8495 6.48825,0.75801 9.71875,0.40625 3.46332,-0.37712 10.28125,-2.375 10.28125,-2.375 2.14372,1.28934 2.91631,1.8783 6.625,1.8125 3.83361,-0.068 8.26265,-1.34707 10.59375,-6 1.10728,-2.21015 -1.34375,-8.0625 -1.34375,-8.0625 1.25444,-1.56175 2.62096,-5.03886 1,-8.5625 1.24268,-2.35202 2.25166,-4.75309 0.5625,-7.59375 1.87589,-3.45958 1.6909,-6.21893 0.59375,-8.6875 1.61754,-2.74031 2.40305,-5.70916 0.5625,-9.4375 1.75952,-3.14704 1.85092,-6.32171 0.59375,-9.46875 1.3133,-2.59562 2.67477,-5.16737 0.59375,-10.1875 0.57294,-2.00817 3.02506,-4.1395 0.5625,-11.28125 2.9353,-3.31421 3.12902,-7.59361 0.59375,-10.9375 0,0 -0.24874,-3.44438 0.84375,-7.28125 1.09248,-3.83687 3.33026,-8.64071 2.34375,-13.59375 -0.77091,-3.87057 -5.77096,-10.86822 -8.65625,-15.25 C 707.61874,309.10763 708.25,301.5625 708.25,301.5625 l -28.1875,0 z"
             style="fill:#194955;fill-opacity:1;stroke:none"
             inkscape:connector-curvature="0" />
        </g>
        <g
           style="fill:#194955;fill-opacity:1;stroke:none"
           id="g9441">
          <path
             style="fill:#194955;fill-opacity:1;stroke:none"
             d="m 778.25177,305.74649 c -6.74206,-6.45227 -4.08118,-18.52326 -6.88736,-25.8141 -6.07783,-15.79103 -18.14081,-27.77403 -34.75702,-37.53951 -17.58166,-10.33288 -35.32712,-19.61728 -65.33038,-20.04559 -30.77154,-0.43928 -31.61536,13.11389 -44.83672,6.72996 -10.27232,-4.95999 -8.90557,-21.6 -2.76087,-42.04545 6.14469,-20.44545 17.65978,-45.28373 18.00119,-62.53899 0.14686,-7.42269 -1.08184,-22.34973 -17.03482,-23.71291 -11.10461,-0.948885 -16.11598,5.60072 -14.05013,9.02753 -7.99611,1.85703 -20.89723,7.62774 -19.69715,8.80221 2.19315,2.14634 14.97638,0.0514 21.84037,1.69329 2.52279,0.60347 4.26553,1.43572 5.42498,2.65533 1.5679,1.64924 2.16433,3.74001 2.37766,5.61741 2.17848,19.17179 -8.71288,34.70986 -19.74184,52.4196 -11.02897,17.70973 -20.89402,37.5455 -20.56748,65.44955 0.50502,43.15617 35.06367,58.34389 67.48814,64.65821 1.81568,0.35358 3.83971,1.20374 5.24849,2.35765 3.04086,2.49072 6.37628,2.89293 9.61205,5.522 l -0.96202,-4.36842 c 2.15994,1.24536 3.69074,2.89267 5.12089,4.91606 0.27448,-2.00641 -0.23114,-3.68878 -1.02418,-5.53056 l 3.07253,2.45802 0,-2.25319 c 2.28896,1.22696 3.96246,2.86478 5.53056,4.91606 0.34821,-2.67755 -0.18011,-4.90821 -1.22901,-7.37408 5.11229,4.69069 7.3609,2.39169 10.8732,11.03857 l 1.01478,-4.46504 2.43547,3.45025 c 1.0842,-2.47395 1.08735,-4.5063 0.40592,-7.10347 2.74993,2.43122 5.06194,3.06021 8.72712,2.63844 -2.70231,-1.45626 -3.98945,-2.22311 -3.45026,-5.47983 2.72407,3.04124 5.15711,4.72267 9.05339,5.85491 -1.59832,-1.81818 -2.61068,-4.28639 -1.74696,-5.85491 2.14036,4.80247 7.6196,2.75111 8.93008,7.50939 0.7742,-2.25918 0.59373,-4.0578 -0.20296,-6.29165 6.37801,4.43815 6.72135,6.49992 11.36556,5.88574 l -2.23252,-4.05913 c 3.96719,0.75007 7.53359,1.00212 7.31019,5.48921 1.83881,-2.05001 2.48088,-2.60083 1.82284,-5.28625 2.45382,2.03779 3.24942,2.42115 3.04811,5.69216 1.19683,-2.11418 2.39752,-2.85578 2.22876,-5.28625 2.09323,1.5345 3.05686,2.39962 4.26584,4.67739 0.38294,-2.80035 0.23431,-3.9926 -1.01854,-6.504 4.05075,0.97492 6.51702,2.29627 8.72712,5.88573 l 1.62365,-6.08869 c 0.95496,3.75659 3.81489,4.38679 7.50938,4.87096 -1.96754,-2.32305 -2.39571,-3.65862 -1.01478,-6.49461 3.02032,2.54764 4.44824,5.02072 5.07391,8.93008 l 3.85617,-5.68277 c 1.6026,2.15811 2.46276,3.80147 2.23252,6.4946 2.18177,-1.79208 3.02285,-3.0084 2.63843,-5.88574 3.66196,5.09227 4.67527,2.55149 6.70884,6.30104 0.41336,-2.25784 1.50398,-2.87497 0.39464,-4.88034 5.12099,2.4661 0.86139,3.8248 6.30292,5.68654 -1.85714,-2.06291 -0.51909,-4.00974 -0.21423,-6.70132 1.73929,2.28422 2.72121,4.00711 2.43547,6.90051 5.72178,-5.17759 0.18965,-13.19132 -3.94194,-17.2416 z"
             id="path6057"
             inkscape:connector-curvature="0"
             sodipodi:nodetypes="ccsssssscsssssssscccccccccccccccccccccccccccccccccccccccc" />
          <path
             sodipodi:nodetypes="cssccc"
             inkscape:connector-curvature="0"
             id="path6030"
             d="m 610.59566,109.80743 c -7.99611,1.85703 -20.89723,7.62774 -19.69715,8.80221 2.19315,2.14634 14.97638,0.0514 21.84037,1.69329 2.52279,0.60347 4.26553,1.43572 5.42498,2.65533 1.82728,-1.37334 4.22666,-4.51575 4.21414,-6.8112 -1.72897,-3.80113 -5.42139,-6.54246 -11.78234,-6.33963 z"
             style="fill:#194955;fill-opacity:1;stroke:none" />
          <path
             sodipodi:nodetypes="cssccc"
             inkscape:connector-curvature="0"
             id="path6055"
             d="m 592.51094,117.02916 c 0,0 14.07091,-2.98779 21.19539,-2.80636 1.62663,0.0414 3.17413,0.83116 4.80035,0.88622 0.64392,0.0218 1.92014,-0.22155 1.92014,-0.22155 -0.93545,-2.70789 -4.43109,-4.33262 -10.48692,-4.8742 -6.85793,1.98921 -12.9282,4.24096 -17.42896,7.01589 z"
             style="fill:#194955;fill-opacity:1;stroke:none" />
          <g
             transform="matrix(-1.1529979,0,0,1.1529979,1347.412,-43.277876)"
             id="g5989"
             style="fill:#194955;fill-opacity:1;stroke:none" />
          <path
             sodipodi:nodetypes="ssccscs"
             inkscape:connector-curvature="0"
             id="path6047"
             d="m 612.4063,115.21875 -5e-5,0 c -7.73896,0 -15.17305,3.32859 -21.57894,3.08752 l 0.48524,0.48356 c 6.67295,0.25113 13.58963,-2.59018 21.125,-2.57108 2.27574,0.006 5.65425,1.11239 7.10937,-0.46875 -2.48333,0.22307 -4.7591,-0.53125 -7.14062,-0.53125 z"
             style="font-size:medium;font-style:normal;font-variant:normal;font-weight:normal;font-stretch:normal;text-indent:0;text-align:start;text-decoration:none;line-height:normal;letter-spacing:normal;word-spacing:normal;text-transform:none;direction:ltr;block-progression:tb;writing-mode:lr-tb;text-anchor:start;baseline-shift:baseline;color:#000000;fill:#194955;fill-opacity:1;stroke:none;stroke-width:1;marker:none;visibility:visible;display:inline;overflow:visible;enable-background:accumulate;font-family:Sans;-inkscape-font-specification:Sans" />
          <path
             sodipodi:nodetypes="cscc"
             inkscape:connector-curvature="0"
             id="path6053"
             d="m 597.32959,116.31918 c 0,0 2.65828,-1.59802 3.75323,-1.50591 0.7879,0.0663 0.95416,0.68565 0.95416,0.68565 -1.38675,0.5361 -2.88722,0.55681 -4.70739,0.82026 z"
             style="fill:#194955;fill-opacity:1;stroke:none" />
          <path
             sodipodi:nodetypes="ccsssssscsssssssscccccccccccccccccccccccccccccccccccccccc"
             inkscape:connector-curvature="0"
             id="path4407"
             d="m 778.25177,305.74649 c -6.74206,-6.45227 -4.08118,-18.52326 -6.88736,-25.8141 -6.07783,-15.79103 -18.14081,-27.77403 -34.75702,-37.53951 -17.58166,-10.33288 -35.32712,-19.61728 -65.33038,-20.04559 -30.77154,-0.43928 -31.61536,13.11389 -44.83672,6.72996 -10.27232,-4.95999 -8.90557,-21.6 -2.76087,-42.04545 6.14469,-20.44545 17.65978,-45.28373 18.00119,-62.53899 0.14686,-7.42269 -1.13965,-21.78953 -17.03482,-23.71291 -10.60336,-1.28305 -16.11598,5.60072 -14.05013,9.02753 -7.99611,1.85703 -20.89723,7.62774 -19.69715,8.80221 2.19315,2.14634 14.97638,0.0514 21.84037,1.69329 2.52279,0.60347 4.26553,1.43572 5.42498,2.65533 1.5679,1.64924 2.16433,3.74001 2.37766,5.61741 2.17848,19.17179 -8.71288,34.70986 -19.74184,52.4196 -11.02897,17.70973 -20.89402,37.5455 -20.56748,65.44955 0.50502,43.15617 35.06367,58.34389 67.48814,64.65821 1.81568,0.35358 3.83971,1.20374 5.24849,2.35765 3.04086,2.49072 6.37628,2.89293 9.61205,5.522 l -0.96202,-4.36842 c 2.15994,1.24536 3.69074,2.89267 5.12089,4.91606 0.27448,-2.00641 -0.23114,-3.68878 -1.02418,-5.53056 l 3.07253,2.45802 0,-2.25319 c 2.28896,1.22696 3.96246,2.86478 5.53056,4.91606 0.34821,-2.67755 -0.18011,-4.90821 -1.22901,-7.37408 5.11229,4.69069 7.3609,2.39169 10.8732,11.03857 l 1.01478,-4.46504 2.43547,3.45025 c 1.0842,-2.47395 1.08735,-4.5063 0.40592,-7.10347 2.74993,2.43122 5.06194,3.06021 8.72712,2.63844 -2.70231,-1.45626 -3.98945,-2.22311 -3.45026,-5.47983 2.72407,3.04124 5.15711,4.72267 9.05339,5.85491 -1.59832,-1.81818 -2.61068,-4.28639 -1.74696,-5.85491 2.14036,4.80247 7.6196,2.75111 8.93008,7.50939 0.7742,-2.25918 0.59373,-4.0578 -0.20296,-6.29165 6.37801,4.43815 6.72135,6.49992 11.36556,5.88574 l -2.23252,-4.05913 c 3.96719,0.75007 7.53359,1.00212 7.31019,5.48921 1.83881,-2.05001 2.48088,-2.60083 1.82284,-5.28625 2.45382,2.03779 3.24942,2.42115 3.04811,5.69216 1.19683,-2.11418 2.39752,-2.85578 2.22876,-5.28625 2.09323,1.5345 3.05686,2.39962 4.26584,4.67739 0.38294,-2.80035 0.23431,-3.9926 -1.01854,-6.504 4.05075,0.97492 6.51702,2.29627 8.72712,5.88573 l 1.62365,-6.08869 c 0.95496,3.75659 3.81489,4.38679 7.50938,4.87096 -1.96754,-2.32305 -2.39571,-3.65862 -1.01478,-6.49461 3.02032,2.54764 4.44824,5.02072 5.07391,8.93008 l 3.85617,-5.68277 c 1.6026,2.15811 2.46276,3.80147 2.23252,6.4946 2.18177,-1.79208 3.02285,-3.0084 2.63843,-5.88574 3.66196,5.09227 4.67527,2.55149 6.70884,6.30104 0.41336,-2.25784 1.50398,-2.87497 0.39464,-4.88034 5.12099,2.4661 0.86139,3.8248 6.30292,5.68654 -1.85714,-2.06291 -0.51909,-4.00974 -0.21423,-6.70132 1.73929,2.28422 2.72121,4.00711 2.43547,6.90051 5.72178,-5.17759 0.18965,-13.19132 -3.94194,-17.2416 z"
             style="fill:#194955;fill-opacity:1;stroke:none" />
          <g
             transform="matrix(-1.1529979,0,0,1.1529979,1347.412,-43.277873)"
             style="fill:#194955;fill-opacity:1;stroke:none;display:inline"
             id="g5292">
            <path
               sodipodi:nodetypes="sssss"
               id="path5730-7"
               d="m 626.6575,130.18471 c -1.67848,0 -3.03556,1.35484 -3.03556,3.03994 0,1.68509 1.35708,3.03993 3.03556,3.03993 1.67849,0 3.03557,-1.35484 3.03557,-3.03993 0,-1.6851 -1.35708,-3.03994 -3.03557,-3.03994 z"
               style="fill:#194955;fill-opacity:1;stroke:none;display:inline"
               inkscape:connector-curvature="0" />
            <path
               sodipodi:nodetypes="sssss"
               id="path5550-6"
               d="m 626.6575,130.84284 c -1.31934,0 -2.38508,1.06857 -2.38508,2.38181 0,1.31324 1.06574,2.3818 2.38508,2.3818 1.31935,0 2.38509,-1.06856 2.38509,-2.3818 0,-1.31324 -1.06574,-2.38181 -2.38509,-2.38181 z"
               style="fill:#194955;fill-opacity:1;stroke:none;display:inline"
               inkscape:connector-curvature="0" />
            <path
               sodipodi:nodetypes="sssss"
               id="path5546-2"
               d="m 626.6575,131.93973 c -0.75103,0 -1.30095,0.56012 -1.30095,1.28492 0,0.7248 0.54992,1.28492 1.30095,1.28492 0.75104,0 1.30096,-0.56012 1.30096,-1.28492 0,-0.7248 -0.54992,-1.28492 -1.30096,-1.28492 z"
               style="fill:#194955;fill-opacity:1;stroke:none;display:inline"
               inkscape:connector-curvature="0" />
            <circle
               r="0.72350073"
               cy="117.57413"
               cx="367.10425"
               transform="matrix(1.1057349,0,0,1.1057349,221.90929,3.5830994)"
               id="path5557-9"
               style="fill:#194955;fill-opacity:1;stroke:none;display:inline"
               d="m 367.82775,117.57413 c 0,0.39958 -0.32392,0.7235 -0.7235,0.7235 -0.39958,0 -0.7235,-0.32392 -0.7235,-0.7235 0,-0.39958 0.32392,-0.7235 0.7235,-0.7235 0.39958,0 0.7235,0.32392 0.7235,0.7235 z"
               sodipodi:cx="367.10425"
               sodipodi:cy="117.57413"
               sodipodi:rx="0.72350073"
               sodipodi:ry="0.72350073" />
          </g>
        </g>
      </g>
      <path
         d="m 2066.1313,440.51872 -1.1454,-13.1547 12.7391,-1.48911 -11.2492,-7.3275 7.2098,-11.21452 -12.8821,4.01754 -4.9055,-12.49507 -4.832,12.49507 -12.8822,-4.01754 7.2099,11.21452 -11.2492,7.3275 12.7392,1.48911 -1.1455,13.1547 10.1601,-9.35766 z"
         id="path47885"
         inkscape:connector-curvature="0"
         style="fill:#194955;fill-opacity:1;stroke:none" />
    </g>
  </g>
</svg>
