<?xml version="1.0" encoding="utf-8"?>
<!-- Generator: Adobe Illustrator 16.0.0, SVG Export Plug-In . SVG Version: 6.00 Build 0)  -->
<!DOCTYPE svg PUBLIC "-//W3C//DTD SVG 1.1//EN" "http://www.w3.org/Graphics/SVG/1.1/DTD/svg11.dtd">
<svg version="1.1" id="Layer_1" xmlns="http://www.w3.org/2000/svg" xmlns:xlink="http://www.w3.org/1999/xlink" x="0px" y="0px"
	 width="230.103px" height="162.021px" viewBox="8.187 110.888 230.103 162.021"
	 enable-background="new 8.187 110.888 230.103 162.021" xml:space="preserve">
<g>
	<g>
		<path fill="#010101" d="M38.957,200.101H26.895V217h2.057v9.146h-2.057v16.892H57.24c0.454,0.776,0.897,1.549,1.369,2.321v8.529
			h1.53v4.762h-1.53v14.259H79.14h75.147h32.838V258.65h-1.529v-4.762h1.529v-10.841h30.771v-16.922h-2.018v-9.157h2.018v-16.919
			h-0.516"/>
		<path fill="#010101" d="M127.887,272.908"/>
		<path fill="#010101" d="M118.812,272.908h9.075"/>
		<path fill="#010101" d="M118.812,272.908"/>
	</g>
	<g>
		<path fill="#010101" d="M238.29,160.002c0,27.054-22.049,48.936-49.1,48.936c-27.048,0-48.965-21.882-48.965-48.936
			c0-27.057,21.917-49.094,48.965-49.094C216.241,110.908,238.29,132.947,238.29,160.002"/>
	</g>
	<g>
		<polygon fill="#010101" points="26.413,157.643 8.187,157.643 8.187,111.178 81.471,111.178 81.471,157.643 63.234,157.643 		"/>
		<polygon fill="#010101" points="59.782,147.04 74.263,147.04 74.263,184.464 15.366,184.464 15.366,147.04 29.911,147.04 		"/>
	</g>
	<g>
		<g>
			<path fill="#010101" d="M73.639,203.202V185.09l26.938-24.452H73.639v-44.375h37.02v1.099c2.953-0.874,5.938-1.323,8.86-1.323
				c17.692,0,32.086,13.899,32.086,30.983c0,9.122-4.479,15.67-9.513,20.242h9.284v35.939H73.639z"/>
			<path d="M119.519,121.188c14.779,0,26.936,11.725,26.936,25.833c0,14.056-13.482,20.854-18.717,23.604v1.788h18.488v25.639
				H78.789V187.37l35.201-31.953l0.003-8.014h-8.55v8.084H78.789v-34.075h26.72v3.719
				C109.551,122.839,114.376,121.188,119.519,121.188 M119.519,110.888c-1.299,0-2.606,0.075-3.917,0.225h-10.093h-26.72h-10.3v10.3
				v34.075v10.3h10.3h8.452l-15.375,13.956l-3.377,3.066v4.561v10.682v10.3h10.3h67.438h10.3v-10.3v-25.639v-10.3h-3.717
				c2.371-4.18,3.945-9.174,3.945-15.093C156.755,127.097,140.051,110.888,119.519,110.888L119.519,110.888z"/>
		</g>
	</g>
	<g>
		<path fill="#FFFFFF" d="M228.07,159.986c0,21.415-17.453,38.736-38.866,38.736c-21.41,0-38.759-17.321-38.759-38.736
			c0-21.417,17.349-38.861,38.759-38.861C210.617,121.124,228.07,138.57,228.07,159.986 M193.414,147.487h-8.359v24.732h8.359
			V147.487z"/>
	</g>
	<g>
		<polygon fill="#FFFFFF" points="58.1,147.42 58.1,138.412 54.592,138.412 54.592,157.269 64.051,157.269 64.051,174.236 
			25.578,174.236 25.578,157.269 35.079,157.269 35.079,138.412 31.55,138.412 31.55,147.42 18.408,147.42 18.408,121.401 
			71.25,121.401 71.25,147.42 		"/>
	</g>
	<g>
		<path fill="#FFFFFF" d="M78.789,121.412h26.72v3.719c4.042-2.292,8.867-3.943,14.01-3.943c14.779,0,26.936,11.725,26.936,25.833
			c0,14.056-13.482,20.854-18.717,23.604v1.788h18.488v25.639H78.789V187.37l35.201-31.953l0.003-8.014h-8.55v8.084H78.789V121.412z
			"/>
	</g>
	<g>
		<polygon fill="#FFFFFF" points="63.05,244.256 72.65,244.256 72.65,249.258 71.117,249.258 71.117,263.276 74.044,263.276 
			74.044,259.027 80.167,259.027 80.167,268.281 63.05,268.281 63.05,263.276 64.588,263.276 64.588,249.258 63.05,249.258 		"/>
	</g>
	<g>
		<polygon fill="#FFFFFF" points="165.359,244.256 182.305,244.256 182.305,252.117 176.829,252.117 176.829,249.258 
			173.355,249.258 173.355,253.814 178.257,253.814 178.257,258.239 173.355,258.239 173.355,263.276 176.829,263.276 
			176.829,260.183 182.684,260.183 182.684,268.281 165.359,268.281 165.359,263.276 166.928,263.276 166.928,249.258 
			165.359,249.258 		"/>
	</g>
	<g>
		<path fill="#FFFFFF" d="M143.818,244.256h8.139v19.021h3.365v-19.021h8.099v5.002h-1.56v12.522c0,1.495,0.029,3.366-0.891,4.696
			c-1.191,1.766-3.162,1.805-4.695,1.805h-5.614c-1.293-0.039-2.724-0.07-3.909-1.094c-1.299-1.114-1.369-2.586-1.369-4.698v-13.231
			h-1.563v-5.002H143.818z"/>
	</g>
	<g>
		<path fill="#FFFFFF" d="M141.189,244.22v6.404h-5.311v-1.399h-4.348v14.052h4.348v-4.829h-1.977v-4.091h7.563v13.926h-10.828
			c-1.295,0-2.656,0-3.945-0.852c-1.706-1.126-1.81-2.788-1.81-4.837v-12.452c0-1.359,0-2.961,0.784-4.154
			c1.189-1.768,3.232-1.768,5.172-1.768H141.189z"/>
	</g>
	<g>
		<path fill="#FFFFFF" d="M107.442,244.256h10.452l3.373,19.022h1.629v5.005h-7.382l-0.86-5.856h-4.045l-0.816,5.856h-7.421v-5.005
			h1.772L107.442,244.256z M112.65,248.202l-1.53,10.071h3.031L112.65,248.202z"/>
	</g>
	<g>
		<polygon fill="#FFFFFF" points="82.636,244.256 99.583,244.256 99.583,252.117 94.104,252.117 94.104,249.258 90.638,249.258 
			90.638,253.814 95.536,253.814 95.536,258.239 90.638,258.239 90.638,263.276 94.104,263.276 94.104,260.183 99.956,260.183 
			99.956,268.281 82.636,268.281 82.636,263.276 84.202,263.276 84.202,249.258 82.636,249.258 		"/>
	</g>
	<g>
		<path fill="#FFFFFF" d="M183.259,205.085v9.696h-7.679v-2.845h-4.852v6.015h5.793c1.748,0.049,3.769,0.049,5.396,1.17
			c2.291,1.541,2.291,4.054,2.291,5.972v5.266c-0.056,2.238-0.056,5.229-2.925,6.813c-1.48,0.845-2.961,0.845-4.535,0.845h-14.195
			v-10.08h8.178v3.218h4.851v-6.63h-6.337c-1.832-0.041-3.814-0.041-5.43-1.771c-1.574-1.626-1.662-3.495-1.709-5.354v-5.461
			c0.047-1.771,0.09-3.506,1.529-5.036c1.66-1.773,3.857-1.815,5.653-1.815L183.259,205.085L183.259,205.085z"/>
	</g>
	<g>
		<polygon fill="#FFFFFF" points="187.639,205.085 198.018,205.085 198.018,217.862 202.4,217.862 202.4,205.085 212.863,205.085 
			212.863,211.938 210.854,211.938 210.854,231.153 212.863,231.153 212.863,238.017 202.4,238.017 202.4,224.765 198.018,224.765 
			198.018,238.017 187.639,238.017 187.639,231.153 189.65,231.153 189.65,211.938 187.639,211.938 		"/>
	</g>
	<g>
		<path fill="#FFFFFF" d="M31.915,205.127H47.21c2.536,0,5.591,0,7.17,2.098c1.045,1.397,1.178,3.396,1.178,5.732
			c0,4.937-0.612,7.267-4.72,8.057c4.238,1.256,4.72,3.267,4.72,7.173c0,4.611-0.31,6.663-1.483,8.063
			c-1.533,1.768-4.022,1.768-6.777,1.768H31.915v-6.848h2.057v-19.192h-2.057V205.127z M41.619,218.165h4.896v-6.188h-4.896V218.165
			z M41.619,231.169h4.896v-6.941h-4.896V231.169z"/>
	</g>
	<g>
		<path fill="#FFFFFF" d="M106.505,205.127H121.8c2.536,0,5.591,0,7.17,2.098c1.045,1.397,1.179,3.396,1.179,5.732
			c0,4.937-0.613,7.267-4.721,8.057c4.238,1.256,4.721,3.267,4.721,7.173c0,4.611-0.311,6.663-1.483,8.063
			c-1.533,1.768-4.022,1.768-6.777,1.768h-15.383v-6.848h2.057v-19.192h-2.057V205.127z M116.209,218.165h4.896v-6.188h-4.896
			V218.165z M116.209,231.169h4.896v-6.941h-4.896V231.169z"/>
	</g>
	<g>
		<polygon fill="#FFFFFF" points="59.091,205.127 72.113,205.127 72.113,211.977 70.059,211.977 70.059,231.169 72.113,231.169 
			72.113,238.017 59.091,238.017 59.091,231.169 61.098,231.169 61.098,211.977 59.091,211.977 		"/>
	</g>
	<g>
		<path fill="#FFFFFF" d="M132.711,237.703 M142.397,238.018l1.108-8.027h5.317l1.118,8.027h9.683v-6.863h-2.149v-0.002
			l-4.412-26.07h-13.707l-4.328,26.07h-2.316v6.865 M144.18,224.298l2.012-13.807l1.961,13.807H144.18z"/>
	</g>
	<g>
		<path fill="#FFFFFF" d="M97.873,205.082v8.767h-6.949v-1.915h-5.689v19.232h5.689v-6.608h-2.586v-5.6h9.896v19.062H84.064
			c-1.695,0-3.476,0-5.163-1.165c-2.232-1.543-2.368-3.816-2.368-6.621V213.19c0-1.861,0-4.053,1.026-5.688
			c1.557-2.42,4.229-2.42,6.768-2.42H97.873z"/>
	</g>
</g>
</svg>
